<?xml version="1.0" encoding="UTF-8"?>
<svg id="Layer_1" data-name="Layer 1" xmlns="http://www.w3.org/2000/svg" viewBox="0 0 868.92 310.36">
  <path d="M227.1,207.15l-7.66,7.66c-.45.44-.78.83-1,1.17-.11-.33-.39-.72-.83-1.17l-7.66-7.66-7.66,7.66c-.78.89-1.17,1.89-1.17,3s.39,2.11,1.17,3l7.66,7.66,7.66-7.66c.44-.44.72-.83.83-1.17.22.33.55.72,1,1.17l7.66,7.66,7.5-7.66c.89-.89,1.33-1.89,1.33-3s-.45-2.11-1.33-3l-7.5-7.66Z" fill="#fff"/>
  <path d="M657.81,98.38l7.66-7.66c.33-.44.61-.89.83-1.33.22.45.5.89.83,1.33l7.66,7.66,7.66-7.66c.89-.89,1.33-1.89,1.33-3s-.45-2.17-1.33-3.17l-7.66-7.5-7.66,7.5c-.33.45-.61.94-.83,1.5-.22-.55-.5-1.05-.83-1.5l-7.66-7.5-7.66,7.5c-.89,1-1.33,2.06-1.33,3.17s.44,2.11,1.33,3l7.66,7.66Z" fill="#fff"/>
  <path d="M666.31,102.88c-4.33,0-8.47.89-12.41,2.67-3.94,1.78-7.36,4.11-10.24,7-2.89,2.89-5.22,6.28-7,10.16-1.78,3.89-2.67,8.05-2.67,12.49v33.65c0,4.33.89,8.44,2.67,12.33.67,1.44,1.33,2.72,2,3.83.67,1.11,1.28,2.17,1.83,3.17.56,1,.83,1.94.83,2.83,0,.78-.28,1.61-.83,2.5-.78,1.44-1.94,2.33-3.5,2.67h-298.96c-3.44,0-5.16-1.5-5.16-4.5v-46.63c0-3.33-.72-6.38-2.17-9.16-1.44-2.77-3.36-5.11-5.75-7-2.39-1.89-5.05-3.36-8-4.41-2.94-1.05-5.91-1.58-8.91-1.58-8.66,0-16.27,3.17-22.82,9.49-3,3-5.28,6.44-6.83,10.33-1.78,3.78-2.66,7.83-2.66,12.16v28.64c0,3.44-1.25,6.41-3.75,8.91-2.5,2.5-5.53,3.75-9.08,3.75h-85.78c-3.78,0-7.33-.72-10.66-2.17-6.77-2.89-11.66-7.77-14.66-14.66-1.44-3.44-2.17-7.16-2.17-11.16v-38.81c0-5.77-1.5-10.91-4.5-15.41-3-4.5-6.39-7.85-10.16-10.08-1.44-.78-2.89-1.17-4.33-1.17-3.11,0-5.5,1.39-7.16,4.16-.78,1.33-1.17,2.72-1.17,4.16,0,3.22,1.39,5.66,4.16,7.33,1.44.78,2.89,1.17,4.33,1.17,1.11,0,2.17-.22,3.17-.67,2.44-1.11,4.05-3,4.83-5.66.22-.78.78-1.17,1.67-1.17.55,0,1,.28,1.33.83,1.55,2.89,2.33,5.94,2.33,9.16,0,1.33-.11,2.67-.33,4-.78,4.55-3.66,8.39-8.66,11.49-1.78.78-3.08,2-3.91,3.67-.83,1.67-1.25,3.44-1.25,5.33,0,6.55,1.11,13.05,3.33,19.49,4.55,13.88,12.55,23.93,23.99,30.15,5.77,3.11,12.38,4.72,19.82,4.83h85.78c4.44,0,8.6-.86,12.49-2.58,3.89-1.72,7.33-4.05,10.33-7,3-2.94,5.33-6.36,7-10.24,1.67-3.89,2.5-8.05,2.5-12.49v-28.47c0-3.55,1.25-6.55,3.75-8.99,2.5-2.44,5.52-3.67,9.08-3.67h.17c.44,0,1.05.08,1.83.25.78.17,1.5.56,2.17,1.17.67.61,1,1.64,1,3.08v46.63c0,3.33.72,6.39,2.17,9.16,1.44,2.78,3.36,5.11,5.75,7,2.39,1.89,5.05,3.36,8,4.41,2.94,1.06,5.91,1.58,8.91,1.58v.17h328.27c8.77,0,16.32-3.17,22.65-9.49,6.33-6.33,9.49-13.88,9.49-22.65v-33.65c0-8.88-3.17-16.49-9.49-22.82-6.33-6.33-13.88-9.49-22.65-9.49ZM678.96,183.66c0,3.44-1.25,6.41-3.75,8.91-2.5,2.5-5.53,3.75-9.08,3.75-3.44-.11-6.41-1.39-8.91-3.83-2.5-2.44-3.75-5.38-3.75-8.83v-63.3c0-3.55,1.25-6.55,3.75-8.99,2.5-2.44,5.52-3.67,9.08-3.67s6.41,1.22,8.91,3.67c2.5,2.44,3.75,5.44,3.75,8.99v63.3Z" fill="#fff"/>
  <path d="M732.1,120.37c-3.44,2.11-5.16,5.05-5.16,8.83v54.14c0,8.66-2.78,15.32-8.33,19.99-7.33,5.88-10.99,13.1-10.99,21.65,0,2.55.75,4.58,2.25,6.08,1.5,1.5,3.25,2.25,5.25,2.25,2.11,0,3.91-.75,5.41-2.25,1.5-1.5,2.25-3.31,2.25-5.41,0-2.44-1-4.44-3-6-1.33-1-2.83-1.5-4.5-1.5-.67,0-1.39.11-2.17.33h-.33c-.56,0-.95-.17-1.17-.5-.22-.33-.33-.67-.33-1l.17-.67c2.77-3.66,6.27-6.44,10.49-8.33,10.1-5.66,17.32-14.77,21.65-27.32,2-5.77,3-11.66,3-17.66v-50.97l-14.49,8.33Z" fill="#fff"/>
</svg>