<?xml version="1.0" encoding="UTF-8"?>
<svg id="Layer_1" data-name="Layer 1" xmlns="http://www.w3.org/2000/svg" viewBox="0 0 2178.78 715.53">
  <g>
    <path d="M447.67,470.23l-23.71,23.71c-1.38,1.37-2.41,2.58-3.09,3.61-.35-1.03-1.21-2.24-2.58-3.61l-23.71-23.71-23.71,23.71c-2.41,2.75-3.61,5.84-3.61,9.28s1.2,6.52,3.61,9.28l23.71,23.71,23.71-23.71c1.37-1.38,2.23-2.58,2.58-3.61.69,1.03,1.72,2.23,3.09,3.61l23.71,23.71,23.2-23.71c2.75-2.75,4.12-5.85,4.12-9.28s-1.38-6.53-4.12-9.28l-23.2-23.71Z" fill="#fff"/>
    <path d="M1780.6,133.62l23.71-23.71c1.03-1.37,1.88-2.75,2.58-4.13.69,1.38,1.55,2.75,2.58,4.13l23.71,23.71,23.71-23.71c2.75-2.75,4.13-5.84,4.13-9.28s-1.38-6.7-4.13-9.79l-23.71-23.2-23.71,23.2c-1.03,1.38-1.89,2.92-2.58,4.64-.69-1.72-1.55-3.26-2.58-4.64l-23.71-23.2-23.71,23.2c-2.75,3.09-4.12,6.36-4.12,9.79s1.37,6.53,4.12,9.28l23.71,23.71Z" fill="#fff"/>
    <path d="M1806.89,147.53c-13.4,0-26.21,2.75-38.4,8.25-12.2,5.5-22.77,12.72-31.7,21.65-8.94,8.94-16.16,19.42-21.65,31.45-5.5,12.03-8.25,24.92-8.25,38.66v104.13c0,13.4,2.75,26.12,8.25,38.15,2.06,4.47,4.13,8.42,6.19,11.86,2.06,3.44,3.95,6.7,5.67,9.79,1.72,3.09,2.58,6.01,2.58,8.76,0,2.41-.86,4.99-2.58,7.73-2.41,4.47-6.02,7.22-10.82,8.25h-925.18c-10.66,0-15.98-4.64-15.98-13.92v-144.3c0-10.31-2.24-19.76-6.7-28.35-4.47-8.59-10.4-15.8-17.78-21.65-7.39-5.84-15.64-10.39-24.74-13.66-9.11-3.26-18.3-4.9-27.58-4.9-26.81,0-50.35,9.79-70.62,29.38-9.28,9.28-16.33,19.93-21.14,31.96-5.5,11.69-8.25,24.23-8.25,37.63v88.63c0,10.66-3.87,19.85-11.6,27.58-7.73,7.73-17.1,11.6-28.09,11.6h-265.48c-11.69,0-22.68-2.23-32.99-6.7-20.97-8.93-36.08-24.05-45.36-45.36-4.47-10.65-6.7-22.17-6.7-34.54v-120.11c0-17.86-4.64-33.77-13.92-47.68-9.28-13.92-19.77-24.31-31.45-31.19-4.47-2.4-8.94-3.61-13.4-3.61-9.62,0-17.01,4.3-22.17,12.89-2.41,4.12-3.61,8.42-3.61,12.89,0,9.97,4.29,17.53,12.89,22.68,4.46,2.41,8.93,3.61,13.4,3.61,3.43,0,6.7-.68,9.79-2.06,7.55-3.43,12.54-9.28,14.95-17.53.68-2.4,2.4-3.61,5.15-3.61,1.72,0,3.09.86,4.12,2.58,4.81,8.94,7.22,18.39,7.22,28.35,0,4.12-.35,8.25-1.03,12.37-2.41,14.1-11.34,25.95-26.81,35.57-5.5,2.41-9.54,6.18-12.11,11.34-2.58,5.15-3.87,10.65-3.87,16.49,0,20.28,3.43,40.39,10.31,60.31,14.09,42.96,38.83,74.06,74.23,93.3,17.86,9.62,38.32,14.61,61.34,14.95h265.48c13.74,0,26.63-2.66,38.66-7.99,12.02-5.33,22.68-12.54,31.96-21.65,9.28-9.1,16.5-19.67,21.65-31.7,5.16-12.03,7.73-24.91,7.73-38.66v-88.11c0-10.99,3.87-20.27,11.6-27.84,7.73-7.56,17.09-11.34,28.09-11.34h.52c1.37,0,3.26.26,5.67.77,2.4.52,4.64,1.72,6.7,3.61,2.06,1.89,3.09,5.07,3.09,9.53v144.3c0,10.31,2.23,19.77,6.7,28.35,4.46,8.59,10.39,15.81,17.78,21.65,7.38,5.85,15.63,10.4,24.74,13.66,9.1,3.27,18.3,4.9,27.58,4.9v.52h1015.91c27.14,0,50.52-9.79,70.11-29.38,19.59-19.59,29.38-42.95,29.38-70.11v-104.13c0-27.49-9.79-51.03-29.38-70.62-19.59-19.59-42.96-29.38-70.11-29.38ZM1846.07,397.54c0,10.66-3.87,19.85-11.6,27.58-7.73,7.73-17.1,11.6-28.09,11.6-10.66-.34-19.84-4.29-27.58-11.86-7.73-7.56-11.6-16.66-11.6-27.32v-195.88c0-10.99,3.87-20.27,11.6-27.84,7.73-7.56,17.09-11.34,28.09-11.34s19.85,3.79,27.58,11.34c7.73,7.56,11.6,16.84,11.6,27.84v195.88Z" fill="#fff"/>
    <path d="M2010.51,201.66c-10.66,6.53-15.98,15.64-15.98,27.32v167.53c0,26.81-8.59,47.42-25.77,61.86-22.68,18.21-34.02,40.55-34.02,67.01,0,7.9,2.32,14.18,6.96,18.82,4.64,4.64,10.05,6.96,16.24,6.96,6.52,0,12.11-2.32,16.75-6.96,4.64-4.64,6.96-10.23,6.96-16.75,0-7.56-3.09-13.75-9.28-18.56-4.13-3.09-8.76-4.64-13.92-4.64-2.06,0-4.3.34-6.7,1.03h-1.03c-1.73,0-2.93-.51-3.61-1.54-.69-1.03-1.03-2.06-1.03-3.09l.52-2.06c8.59-11.34,19.41-19.93,32.48-25.77,31.27-17.53,53.61-45.7,67.01-84.54,6.18-17.86,9.28-36.08,9.28-54.64v-157.74l-44.85,25.78Z" fill="#fff"/>
  </g>
  <g>
    <path d="M920.72,612.52c.77,0,1.44-.27,1.99-.83s.83-1.22.83-1.99-.28-1.44-.83-1.99-1.21-.83-1.99-.83-1.44.28-1.99.83-.83,1.21-.83,1.99.28,1.44.83,1.99,1.21.83,1.99.83Z" fill="#fff"/>
    <path d="M922.3,616.8c-2.79-.5-5.35.02-7.67,1.57-.49.42-.8.92-.91,1.5-.12.57,0,1.12.33,1.62.34.5.8.8,1.37.88.57.08,1.13-.03,1.67-.34,1.34-.91,2.8-1.22,4.4-.93,1.6.29,2.84,1.13,3.73,2.5s1.21,2.83.95,4.38c-.28,1.38-.95,2.51-2.01,3.38-1.15.96-2.43,1.44-3.84,1.44h-70.07c-1.64,0-2.82-.34-3.52-1.02-.68-.68-1.02-1.81-1.02-3.38v-9.54c0-.59-.2-1.09-.62-1.5-.41-.41-.92-.62-1.51-.62s-1.11.21-1.55.62c-.43.41-.65.91-.65,1.5v20.24c0,1.62-.34,2.77-1.02,3.45-.68.68-1.83,1.02-3.45,1.02h-1.37c-.59,0-1.1.2-1.53.62-.43.41-.65.94-.65,1.6,0,.54.22,1.03.65,1.46s.94.65,1.53.65h1.37c2.75,0,4.9-.77,6.46-2.31,1.56-1.54,2.34-3.7,2.34-6.49v-2.89c1.11.54,2.42.82,3.91.89v.03h70.71c1.88,0,3.57-.46,5.07-1.37.23-.14.45-.28.63-.42,2.32-1.55,3.75-3.72,4.28-6.51.53-2.79.02-5.37-1.51-7.73-1.54-2.36-3.7-3.79-6.49-4.29Z" fill="#fff"/>
    <path d="M957.25,612.66c.84,0,1.57-.29,2.16-.88s.9-1.31.9-2.18-.3-1.56-.9-2.15-1.32-.88-2.16-.88-1.57.29-2.18.88c-.61.59-.92,1.3-.92,2.15s.3,1.6.92,2.18c.61.59,1.34.88,2.18.88Z" fill="#fff"/>
    <path d="M957.22,616.75c-2.79,0-5.19,1-7.2,3.01-2.01,2.01-3.01,4.41-3.01,7.2,0,2.11.63,4.06,1.9,5.84h-6.72c-1.67,0-2.84-.35-3.52-1.04-.68-.69-1.02-1.83-1.02-3.43v-22c0-.61-.22-1.12-.65-1.53s-.95-.62-1.55-.62-1.1.2-1.51.62-.62.92-.62,1.53v22c0,2.79.78,4.96,2.34,6.49,1.46,1.43,3.47,2.17,6,2.27v.04h15.56c2.79,0,5.2-1,7.21-2.99,2.02-1.99,3.03-4.39,3.03-7.18s-1.01-5.19-3.03-7.2c-2.02-2.01-4.42-3.01-7.21-3.01ZM961.42,631.07c-1.14,1.15-2.53,1.72-4.17,1.72s-3.01-.57-4.17-1.72c-1.16-1.15-1.74-2.53-1.74-4.15s.58-3,1.74-4.15,2.55-1.72,4.17-1.72,3.03.57,4.17,1.72,1.71,2.53,1.71,4.15-.57,3-1.71,4.15Z" fill="#fff"/>
    <path d="M1001.25,640.57c-.85,0-1.58.3-2.2.9s-.93,1.32-.93,2.17.31,1.57.93,2.16,1.35.9,2.2.9,1.57-.3,2.16-.9.9-1.32.9-2.16-.3-1.57-.9-2.17-1.32-.9-2.16-.9Z" fill="#fff"/>
    <path d="M994.1,640.57c-.85,0-1.57.3-2.17.9s-.9,1.32-.9,2.17.3,1.57.9,2.16,1.32.9,2.17.9,1.57-.3,2.16-.9.9-1.32.9-2.16-.3-1.57-.9-2.17-1.32-.9-2.16-.9Z" fill="#fff"/>
    <path d="M1106.72,612.52c.77,0,1.44-.27,1.99-.83s.83-1.22.83-1.99-.28-1.44-.83-1.99-1.21-.83-1.99-.83-1.44.28-1.99.83-.83,1.21-.83,1.99.28,1.44.83,1.99,1.21.83,1.99.83Z" fill="#fff"/>
    <path d="M1108.31,616.8c-2.79-.5-5.35.02-7.67,1.57-.49.42-.8.92-.91,1.5-.12.57,0,1.12.33,1.62.34.5.8.8,1.37.88.57.08,1.13-.03,1.67-.34,1.34-.91,2.8-1.22,4.4-.93,1.6.29,2.84,1.13,3.73,2.5s1.21,2.83.95,4.38c-.28,1.38-.95,2.51-2.01,3.38-1.15.96-2.43,1.44-3.84,1.44h-12.21c-1.64,0-2.8-.35-3.48-1.04-.68-.69-1.02-1.83-1.02-3.43v-22c0-.61-.21-1.12-.63-1.53s-.93-.62-1.51-.62-1.1.2-1.53.62-.65.92-.65,1.53v22c0,1.6-.35,2.74-1.04,3.43-.69.69-1.86,1.04-3.5,1.04h-57.51c-1.64,0-2.82-.59-3.52-1.76-.59-.61-.92-1.87-.99-3.77v-.07c.02-2.86-1.42-4.28-4.33-4.26h-6.76c-.63,0-1.17.19-1.6.58s-.65.9-.65,1.53.22,1.16.65,1.58c.43.42.97.63,1.6.63h.74c-.28,1.9-.7,3.16-1.27,3.77-1.1,1.17-2.5,1.76-4.19,1.76h-13.8c-1.71,0-3.12-.59-4.21-1.76s-1.64-2.53-1.64-4.08c0-.63-.21-1.17-.62-1.6-.41-.43-.93-.65-1.55-.65s-1.14.22-1.55.65c-.41.43-.62.97-.62,1.6,0,2.7.96,5.07,2.89,7.11,1.92,2.04,4.35,3.06,7.28,3.06h13.8c2.91,0,5.33-1.02,7.25-3.06,1.43-1.2,2.33-3.46,2.71-6.79h1.51c.12,3.33.85,5.71,2.18,7.14,1.51,1.66,3.53,2.52,6.02,2.66v.05h58.78v-.05c2.48-.11,4.45-.85,5.88-2.28l.18-.17.17.17c1.49,1.49,3.58,2.25,6.23,2.3v.02h12.5c1.88,0,3.57-.46,5.07-1.37.23-.14.45-.28.63-.42,2.32-1.55,3.75-3.72,4.28-6.51.53-2.79.02-5.37-1.51-7.73-1.54-2.36-3.7-3.79-6.49-4.29Z" fill="#fff"/>
    <path d="M1122.84,604.11c-.54,0-1.03.22-1.46.65s-.65.96-.65,1.57v28.65c0,.61.21,1.12.62,1.53.41.41.92.62,1.51.62s1.11-.2,1.55-.62.65-.92.65-1.53v-28.65c0-.61-.22-1.13-.65-1.57s-.96-.65-1.57-.65Z" fill="#fff"/>
    <path d="M1144.73,617.7c-.68-.35-1.35-.63-2.01-.85-1.9-.61-3.82-.65-5.77-.11-.63.24-1.09.6-1.37,1.11-.28.5-.34,1.05-.18,1.64.16.59.5,1.02,1.02,1.29s1.08.35,1.69.23c1.55-.45,3.03-.27,4.45.51,1.42.79,2.33,1.98,2.73,3.57.4,1.6.22,3.07-.53,4.44-.7,1.24-1.69,2.1-2.96,2.57-1.41.47-2.77.7-4.08.7h-4.86c-.59,0-1.1.21-1.53.62-.43.41-.65.93-.65,1.57,0,.56.22,1.06.65,1.5.43.43.94.65,1.53.65h3.84c1.52,0,3.14-.15,4.86-.46.26-.07.49-.14.7-.21,2.72-.7,4.78-2.29,6.18-4.77,1.4-2.47,1.74-5.08,1.04-7.81-.7-2.73-2.29-4.79-4.75-6.18Z" fill="#fff"/>
    <path d="M1254.47,640.68c-.77,0-1.45.27-2.02.81-.57.54-.86,1.2-.86,1.99s.29,1.45.86,1.99c.57.54,1.25.81,2.02.81s1.43-.27,1.95-.81c.53-.54.79-1.2.79-1.99s-.26-1.45-.79-1.99c-.53-.54-1.18-.81-1.95-.81Z" fill="#fff"/>
    <path d="M1261,640.68c-.79,0-1.45.27-2.01.81-.55.54-.83,1.2-.83,1.99s.27,1.45.83,1.99c.55.54,1.22.81,2.01.81s1.45-.27,1.99-.81.81-1.2.81-1.99-.27-1.45-.81-1.99-1.2-.81-1.99-.81Z" fill="#fff"/>
    <path d="M1335.76,612.49c.79,0,1.45-.27,1.99-.83.54-.55.81-1.22.81-2.01s-.27-1.45-.81-1.99c-.54-.54-1.2-.81-1.99-.81s-1.45.27-1.99.81-.81,1.2-.81,1.99.27,1.45.81,2.01c.54.55,1.2.83,1.99.83Z" fill="#fff"/>
    <path d="M1339.64,616.75c-.61,0-1.13.21-1.57.62-.44.41-.65.91-.65,1.5v9.47c0,1.6-.34,2.74-1.02,3.43-.65.66-1.87,1-3.64,1.03-1.57-.03-2.71-.59-3.38-1.71-.69-1.15-1.04-2.52-1.04-4.12,0-2.79-1-5.19-2.99-7.2-2-2.01-4.38-3.01-7.14-3.01h-9.12c-2.18,0-4.12.61-5.81,1.83v-.99c0-.61-.21-1.13-.63-1.57-.42-.43-.95-.65-1.58-.65-.54,0-1.03.22-1.46.65-.43.44-.65.96-.65,1.57v15.2h-5.95c-1.64,0-2.82-.57-3.52-1.72-.19-.3-.34-.62-.46-.95-.02-2.77-1.02-5.15-2.99-7.14-2-2-4.39-2.99-7.18-2.99s-5.19,1-7.18,2.99c-1.9,1.9-2.91,4.13-3.03,6.69-.14.49-.34.96-.6,1.41-.7,1.15-1.88,1.72-3.52,1.72h-.14c-1.64,0-2.81-.35-3.5-1.04-.69-.69-1.04-1.83-1.04-3.43v-9.47c0-.59-.2-1.09-.62-1.5-.41-.41-.91-.62-1.5-.62s-1.13.21-1.57.62c-.43.41-.65.91-.65,1.5v9.47c0,1.6-.34,2.74-1.02,3.43-.68.69-1.84,1.04-3.48,1.04h-58c-1.64,0-2.74-.29-3.31-.88-.17-.16-.31-.33-.42-.49.05-.4.07-.81.07-1.23,0-2.79-1-5.19-2.99-7.2-1.99-2.01-4.39-3.01-7.18-3.01s-5.19,1-7.18,2.99c-.82.82-1.47,1.69-1.94,2.6-.21.02-.47.07-.77.14-1.55.35-2.77.97-3.66,1.87-1.57,1.55-2.36,3.72-2.36,6.51v11.54c0,.61.2,1.12.62,1.53.41.41.92.62,1.51.62s1.11-.21,1.55-.62c.43-.41.65-.92.65-1.53v-11.54c0-1.6.34-2.75,1.02-3.45.12-.12.23-.21.35-.28,0,.89.09,1.67.28,2.32.42,1.67,1.36,3.26,2.82,4.79,1.99,1.97,4.36,2.96,7.11,2.96,1.31,0,2.56-.25,3.73-.74l.14-.07c.61-.26,1.2-.59,1.76-.98.49-.38.96-.79,1.41-1.23.61-.63,1.13-1.29,1.55-1.97,1.26,1.01,2.81,1.54,4.61,1.64v.04h58.78c2.72-.04,4.85-.8,6.37-2.32l.18-.17c.05.07.11.13.18.17,1.55,1.55,3.72,2.32,6.51,2.32h.49v-.03c2.06-.07,3.78-.68,5.14-1.87.45.77,1.02,1.53,1.72,2.25,1.99,1.97,4.36,2.96,7.11,2.96,1.31,0,2.56-.25,3.73-.74l.14-.07c.61-.26,1.2-.59,1.76-.98.49-.38.96-.79,1.41-1.23.66-.68,1.22-1.4,1.69-2.15,1.33,1.17,3.03,1.77,5.07,1.84v.03h25.55c2.77,0,5.15-1,7.14-2.99l.56-.6.46.6c1.48,1.91,3.54,2.89,6.16,2.98v.02c.05,0,.09,0,.14,0,.07,0,.14,0,.21,0v-.02c2.84-.06,5.03-.81,6.53-2.28,1.56-1.54,2.34-3.7,2.34-6.49v-9.47c0-.59-.21-1.09-.62-1.5-.41-.41-.91-.62-1.5-.62ZM1183.13,634.34c-1.15,1.17-2.54,1.76-4.17,1.76s-3.02-.58-4.15-1.74c-1.14-1.16-1.71-2.56-1.71-4.19s.57-3.02,1.71-4.15c1.14-1.14,2.52-1.71,4.15-1.71s3.02.56,4.17,1.69c1.08,1.08,1.64,2.38,1.69,3.91,0,1.83-.56,3.31-1.69,4.43ZM1283.02,634.34c-1.15,1.17-2.54,1.76-4.17,1.76s-3.02-.58-4.15-1.74c-1.14-1.16-1.71-2.56-1.71-4.19s.57-3.02,1.71-4.15,2.52-1.71,4.15-1.71,3.02.56,4.17,1.69c1.08,1.08,1.64,2.38,1.69,3.91,0,1.83-.56,3.31-1.69,4.43ZM1322.31,631.07c-1.14,1.15-2.5,1.72-4.1,1.72h-14.92v-5.84c0-1.64.57-3.04,1.71-4.19,1.14-1.15,2.5-1.72,4.1-1.72h9.12c1.6,0,2.96.57,4.1,1.72,1.14,1.15,1.71,2.53,1.71,4.15s-.57,3-1.71,4.15Z" fill="#fff"/>
    <path d="M1344.61,607.67c-.54-.54-1.2-.81-1.99-.81s-1.45.27-1.99.81-.81,1.2-.81,1.99.27,1.45.81,2.01c.54.55,1.2.83,1.99.83s1.45-.27,1.99-.83c.54-.55.81-1.22.81-2.01s-.27-1.45-.81-1.99Z" fill="#fff"/>
  </g>
</svg>