<?xml version="1.0" encoding="UTF-8"?>
<svg id="Layer_1" data-name="Layer 1" xmlns="http://www.w3.org/2000/svg" viewBox="0 0 30.63 864">
  <g>
    <path d="M2.73,672.12c0-1.4.5-2.62,1.51-3.63,1.07-1.03,2.31-1.56,3.73-1.58,1.08,0,2.04.3,2.88.9v-.02l.31.25.43.41.27.38c1.02-.71,2.13-1.06,3.33-1.06,1.38,0,2.59.5,3.64,1.49s1.58,2.24,1.58,3.74-.51,2.64-1.53,3.64c-.19.24-.46.36-.81.36-.31,0-.57-.11-.78-.31-.21-.21-.31-.48-.31-.82,0-.3.12-.55.36-.76.59-.59.88-1.3.88-2.14s-.31-1.56-.92-2.13c-.61-.57-1.31-.86-2.11-.86-.86,0-1.58.3-2.14.89-.56.59-.85,1.29-.85,2.1v2.88c-.05.5-.29.83-.74.97-.23.12-.38.23-.47.32-.36.35-.54.95-.54,1.8h-2.21c0-1.78.58-3.04,1.75-3.8l.02-2.81c-.04-1.34-.08-2.23-.13-2.66-.54-.44-1.17-.67-1.89-.67-.84,0-1.56.29-2.15.87-.59.58-.89,1.29-.89,2.13s.3,1.54.9,2.12c.1.1.25.2.45.3.2.11.37.3.49.58.06.13.09.26.09.4,0,.16-.05.35-.16.58-.11.23-.31.39-.59.49-.12.04-.23.05-.34.05-.46,0-.95-.27-1.49-.81-1.03-1.03-1.55-2.23-1.55-3.6Z" fill="#fff"/>
    <path d="M8.24,686.54v-7.96h2.21v3.71c.91-.65,1.91-.97,2.99-.97,1.43,0,2.66.51,3.68,1.54,1.03,1.03,1.54,2.25,1.54,3.68s-.51,2.66-1.54,3.69c-1.03,1.03-2.25,1.55-3.68,1.55s-2.65-.52-3.67-1.55c-1.02-1.03-1.53-2.26-1.53-3.69ZM10.45,686.55c0,.84.29,1.55.88,2.13s1.3.87,2.12.87,1.54-.29,2.12-.87.88-1.29.88-2.13-.29-1.54-.88-2.13-1.3-.89-2.12-.89-1.54.3-2.12.89-.88,1.3-.88,2.13ZM20.84,684.86c0-.41.14-.75.42-1.03.28-.28.62-.41,1.02-.41s.75.14,1.03.41c.28.28.41.62.41,1.03s-.14.73-.41,1.01c-.28.28-.62.41-1.03.41s-.74-.14-1.02-.41c-.28-.28-.42-.61-.42-1.01ZM20.84,688.37c0-.41.14-.75.42-1.03.28-.28.62-.41,1.02-.41s.75.14,1.03.41c.28.28.41.62.41,1.03s-.14.73-.41,1.01c-.28.28-.62.41-1.03.41s-.74-.14-1.02-.41c-.28-.28-.42-.61-.42-1.01Z" fill="#fff"/>
    <path d="M10.45,703.64v1.58h-2.21v-1.58h-.31c-1.38,0-2.59-.5-3.64-1.49s-1.57-2.18-1.57-3.55c0-.65.04-1.14.11-1.49.31-1.4,1.04-2.51,2.18-3.31.26-.18.55-.25.85-.2.3.05.54.21.71.48.17.27.22.55.14.84-.08.29-.25.53-.51.72-.65.44-1.04,1.1-1.19,1.96-.02.19-.04.5-.05.92-.01.8.28,1.49.87,2.06.59.57,1.29.85,2.1.85h1.3c-.66-.91-.99-1.91-.99-3.01,0-1.43.52-2.65,1.55-3.67s2.26-1.53,3.69-1.53,2.65.51,3.68,1.53,1.54,2.24,1.54,3.67-.51,2.66-1.54,3.68-2.25,1.54-3.68,1.54h-3.02ZM11.35,700.55c.6.58,1.31.87,2.14.87s1.54-.29,2.12-.87.88-1.29.88-2.12-.29-1.54-.88-2.12-1.3-.87-2.12-.87-1.54.29-2.14.87c-.6.58-.9,1.29-.9,2.12s.3,1.54.9,2.12Z" fill="#fff"/>
    <path d="M11.82,717.52c-.17.06-.33.14-.49.23-.59.36-.88.96-.88,1.8h-2.21c0-1.13.32-2.05.95-2.77-.38-.24-.75-.53-1.1-.87-.23-.23-.44-.47-.63-.72-.2-.29-.37-.59-.5-.9l-.04-.07c-.25-.6-.38-1.24-.38-1.91,0-1.4.5-2.62,1.51-3.64.37-.36.76-.65,1.15-.88-.65-.73-.97-1.67-.97-2.81h2.21c0,.84.29,1.44.88,1.8.23.13.47.23.72.3,1.31.06,2.45.58,3.42,1.55s1.53,2.24,1.53,3.67-.51,2.65-1.53,3.67c-1.02,1.01-2.24,1.52-3.65,1.53ZM11.93,715.3c.78-.02,1.45-.31,2-.86.58-.59.86-1.3.86-2.13s-.29-1.54-.87-2.12-1.29-.87-2.12-.87-1.55.29-2.14.87-.89,1.29-.89,2.12.3,1.54.9,2.13c.58.57,1.33.86,2.27.86Z" fill="#fff"/>
    <path d="M12.74,723.9c-1.43,0-2.54-.4-3.32-1.2-.79-.8-1.18-1.91-1.18-3.34h2.21c0,.84.18,1.44.53,1.79.35.35.94.53,1.75.53h11.25c.31,0,.57.11.78.33s.31.48.31.78-.1.56-.31.77c-.21.22-.47.32-.78.32h-11.25Z" fill="#fff"/>
    <path d="M23.99,726.06c.31,0,.58.11.8.33.22.22.33.47.33.75,0,.31-.11.58-.33.8s-.49.33-.8.33h-14.65c-.31,0-.57-.11-.78-.33-.21-.22-.32-.49-.32-.79s.1-.56.32-.78.47-.31.78-.31h14.65Z" fill="#fff"/>
    <path d="M8.24,740.09c0-1.5.52-2.74,1.57-3.72,1.04-.98,2.26-1.48,3.64-1.48.32,0,.6.11.82.31.22.21.33.47.33.79s-.11.58-.33.79c-.22.21-.5.32-.82.32-.79,0-1.49.28-2.09.84-.6.56-.9,1.28-.9,2.15v7.06c0,.87.3,1.58.9,2.14.31.29.95.5,1.93.65v-.38c0-.32.11-.6.32-.82.22-.22.49-.33.81-.33s.58.11.78.33c.2.22.3.49.3.82v3.46c.01,1.49-.71,2.22-2.18,2.21h-.04c-.97.04-1.61.21-1.93.5-.6.36-.9.96-.9,1.8h-2.21c0-1.43.46-2.56,1.39-3.4.73-.68,1.95-1.06,3.65-1.12v-.78c-1.7-.19-2.86-.65-3.47-1.38-1.04-.98-1.57-2.22-1.57-3.71v-7.06Z" fill="#fff"/>
    <path d="M12.74,759.67h11.25c.31,0,.57.11.78.33.21.22.31.48.31.78s-.1.56-.31.78c-.21.21-.47.32-.78.32h-11.25c-.82,0-1.4.17-1.75.52-.35.35-.53.94-.53,1.78h-2.21c0-1.43.4-2.54,1.19-3.33.02-.02.05-.05.09-.09l-.09-.09c-.79-.79-1.19-1.9-1.19-3.33h2.21c0,.84.18,1.44.53,1.79.35.35.94.53,1.75.53Z" fill="#fff"/>
    <path d="M8.24,775.94v-12.04h2.21v3.6c.86-.62,1.86-.94,2.99-.94,1.38,0,2.59.5,3.64,1.49s1.58,2.24,1.58,3.74c0,1.42-.51,2.63-1.53,3.63-.19.24-.46.36-.81.36-.31,0-.57-.11-.78-.32-.21-.21-.31-.48-.31-.82,0-.3.12-.55.36-.76.59-.59.88-1.3.88-2.14s-.31-1.56-.92-2.13c-.61-.57-1.31-.86-2.11-.86-.86,0-1.58.3-2.14.89-.56.59-.85,1.29-.85,2.08v4.19c-.02.28-.14.52-.35.73-.21.21-.47.31-.77.31s-.57-.11-.78-.31-.32-.45-.32-.73Z" fill="#fff"/>
    <path d="M8.24,796.64v-8.21c0-1.5.52-2.74,1.57-3.72,1.04-.98,2.26-1.48,3.64-1.48.32,0,.6.11.82.31.22.21.33.48.33.8s-.11.57-.33.78c-.22.21-.5.31-.82.31-.79,0-1.49.28-2.09.84-.6.56-.9,1.28-.9,2.15v3.96c.91-.66,1.91-.99,2.99-.99,1.43,0,2.66.52,3.68,1.55,1.03,1.03,1.54,2.26,1.54,3.69s-.51,2.65-1.54,3.68c-1.03,1.03-2.25,1.54-3.68,1.54s-2.65-.51-3.67-1.54c-1.02-1.03-1.53-2.25-1.53-3.68ZM10.45,796.66c0,.83.29,1.54.88,2.12.59.59,1.3.88,2.12.88s1.54-.29,2.12-.88c.59-.59.88-1.3.88-2.12s-.29-1.54-.88-2.14-1.3-.9-2.12-.9-1.54.3-2.12.9-.88,1.31-.88,2.14ZM20.75,796.66c0-.43.15-.81.45-1.12s.67-.48,1.12-.48.8.16,1.1.48.45.69.45,1.12-.15.8-.45,1.11c-.3.3-.67.46-1.1.46s-.82-.15-1.12-.46c-.3-.31-.45-.68-.45-1.11Z" fill="#fff"/>
    <path d="M23.99,804.02c.31,0,.58.11.8.33s.33.47.33.75c0,.31-.11.58-.33.8-.22.22-.49.33-.8.33h-14.65c-.31,0-.57-.11-.78-.33-.21-.22-.32-.49-.32-.79s.1-.56.32-.77c.21-.21.47-.31.78-.31h14.65Z" fill="#fff"/>
    <path d="M12.7,813.72c-.8,0-1.38.17-1.73.52-.35.36-.52.96-.52,1.8h-2.21c0-.9.16-1.67.47-2.32h-1.48c-1.43,0-2.54-.4-3.32-1.2-.79-.8-1.18-1.9-1.18-3.3v-.7c0-.3.11-.56.33-.78.22-.22.47-.33.75-.33.34,0,.61.11.82.33.21.22.32.48.32.78v.7c0,.83.17,1.42.52,1.76.35.35.94.52,1.76.52h10.35c.3,0,.55.11.77.33.21.22.31.49.31.79s-.11.56-.31.78c-.21.21-.47.31-.77.31h-4.88Z" fill="#fff"/>
    <path d="M8.24,825.44c0-.77.26-1.46.77-2.07-.25-.3-.45-.61-.59-.94-.12-.36-.18-.73-.18-1.1,0-.86.31-1.61.94-2.23l.09-.07c-.68-.78-1.03-1.84-1.03-3.17h2.21c0,.84.18,1.44.53,1.79.35.35.94.53,1.75.53h4.84c.3,0,.55.11.77.33.21.22.31.48.31.78s-.11.56-.31.77c-.21.22-.47.32-.77.32h-6.17c-.26,0-.49.09-.67.26-.19.17-.28.41-.28.71,0,.12.02.24.07.36.17.37.46.56.88.56h6.17c.28,0,.53.11.75.33.22.22.33.48.33.77s-.11.55-.33.77c-.22.21-.47.33-.75.35h-6.17c-.26,0-.49.09-.67.26-.19.17-.28.4-.28.68s.09.52.28.69c.19.17.41.26.67.26h6.17c.3,0,.55.11.77.31.21.21.31.46.31.77s-.11.58-.31.8c-.21.22-.47.33-.77.33h-6.17c-.86,0-1.61-.31-2.23-.93-.62-.62-.94-1.37-.94-2.24ZM20.71,819.9c0-.4.14-.73.42-1.02.28-.28.62-.42,1.02-.42s.73.14,1.02.42c.28.28.42.62.42,1.02s-.14.73-.42,1.02c-.28.28-.62.42-1.02.42s-.74-.14-1.02-.42c-.28-.28-.42-.62-.42-1.02ZM20.71,823.41c0-.4.14-.73.42-1.02.28-.28.62-.42,1.02-.42s.73.14,1.02.42c.28.28.42.62.42,1.02s-.14.73-.42,1.02c-.28.28-.62.42-1.02.42s-.74-.14-1.02-.42c-.28-.28-.42-.62-.42-1.02ZM20.71,826.92c0-.39.14-.73.42-1.02.28-.28.62-.42,1.02-.42s.73.14,1.02.42c.28.28.42.62.42,1.02s-.14.74-.42,1.02-.62.42-1.02.42-.74-.14-1.02-.42c-.28-.28-.42-.62-.42-1.02Z" fill="#fff"/>
    <path d="M10.47,835.13c.61-.28,1.37-.41,2.27-.41h9.54c.31,0,.57.1.78.31.21.21.31.46.31.77s-.1.56-.31.79-.47.34-.78.34h-9.54c-.91,0-1.55.17-1.91.52-.25.25-.38.58-.38.99,0,.48.13.84.38,1.08.36.35,1,.52,1.91.52h11.25c.31,0,.57.11.78.33s.31.49.31.79-.1.56-.31.77c-.21.21-.47.31-.78.31h-11.25c-1.43,0-2.54-.4-3.32-1.2-.79-.8-1.18-1.86-1.18-3.2v-2.92c0-.32.04-.66.11-1.01.31-1.4,1.04-2.51,2.18-3.31.26-.18.55-.25.85-.2.3.05.54.21.71.48.17.27.23.55.18.84-.05.29-.21.53-.48.72-.89.65-1.33,1.54-1.31,2.66Z" fill="#fff"/>
    <path d="M23.99,845.13c.31,0,.58.11.8.33.22.22.33.47.33.75,0,.31-.11.58-.33.8s-.49.33-.8.33h-14.65c-.31,0-.57-.11-.78-.33-.21-.22-.32-.49-.32-.79s.1-.56.32-.78.47-.31.78-.31h14.65Z" fill="#fff"/>
  </g>
  <g>
    <path d="M2.73,435.23c0-1.4.5-2.62,1.51-3.64,1.07-1.03,2.31-1.56,3.73-1.58,1.08,0,2.04.3,2.88.9v-.02l.31.25.43.41.27.38c1.02-.71,2.13-1.06,3.33-1.06,1.38,0,2.59.5,3.64,1.49s1.58,2.24,1.58,3.74-.51,2.64-1.53,3.64c-.19.24-.46.36-.81.36-.31,0-.57-.11-.78-.32s-.31-.48-.31-.82c0-.3.12-.55.36-.76.59-.59.88-1.3.88-2.14s-.31-1.56-.92-2.13c-.61-.57-1.31-.86-2.11-.86-.86,0-1.58.3-2.14.89-.56.59-.85,1.29-.85,2.1v2.88c-.05.5-.29.83-.74.97-.23.12-.38.23-.47.32-.36.35-.54.95-.54,1.8h-2.21c0-1.78.58-3.04,1.75-3.8l.02-2.81c-.04-1.34-.08-2.23-.13-2.66-.54-.44-1.17-.67-1.89-.67-.84,0-1.56.29-2.15.87-.59.58-.89,1.29-.89,2.13s.3,1.54.9,2.12c.1.1.25.2.45.31.2.11.37.3.49.58.06.13.09.26.09.4,0,.16-.05.35-.16.58-.11.23-.31.39-.59.49-.12.04-.23.05-.34.05-.46,0-.95-.27-1.49-.81-1.03-1.03-1.55-2.23-1.55-3.6Z" fill="#fff"/>
    <path d="M10.45,449.5h-2.21v-7.87h2.21v7.87Z" fill="#fff"/>
    <path d="M10.45,456.9h-2.21v-7.87h2.21v7.87Z" fill="#fff"/>
    <path d="M6.42,458.05c0,.4-.14.73-.41,1-.28.27-.61.41-1.02.41s-.74-.13-1.02-.41c-.28-.27-.41-.6-.41-1s.14-.74.41-1.04c.28-.29.61-.44,1.02-.44s.74.15,1.02.44c.28.29.41.64.41,1.04ZM6.42,461.39c0,.4-.14.74-.41,1.02s-.61.41-1.02.41-.74-.14-1.02-.41-.41-.62-.41-1.02.14-.74.41-1.03c.28-.28.61-.42,1.02-.42s.74.14,1.02.42c.28.28.41.62.41,1.03ZM8.24,459.27v-2.75h2.21v2.75c0,.85.18,1.45.53,1.8.35.35.94.52,1.75.52h4.84c.3,0,.55.11.77.33.21.22.31.48.31.78s-.11.57-.31.78c-.21.21-.47.32-.77.32h-4.84c-1.43,0-2.54-.4-3.32-1.2-.79-.8-1.18-1.91-1.18-3.34Z" fill="#fff"/>
    <path d="M7.25,470.67c-1.43,0-2.54-.4-3.32-1.2-.79-.8-1.18-1.9-1.18-3.3v-.7c0-.3.11-.56.33-.78s.47-.33.75-.33c.34,0,.61.11.82.33.21.22.31.48.31.78v.7c0,.83.17,1.42.52,1.76.35.35.94.52,1.76.52h10.33c.3,0,.55.11.77.33.21.22.31.49.31.79s-.11.56-.31.77c-.21.21-.47.32-.77.32H7.25Z" fill="#fff"/>
    <path d="M12.74,472.83h11.25c.31,0,.57.11.78.32s.31.47.31.77-.1.57-.31.79c-.21.22-.47.33-.78.33h-11.25c-.82,0-1.4.17-1.75.52-.35.35-.53.95-.53,1.8h-2.21c0-1.43.39-2.54,1.18-3.34s1.89-1.2,3.32-1.2Z" fill="#fff"/>
    <path d="M10.45,484.91h-2.21v-7.87h2.21v7.87Z" fill="#fff"/>
    <path d="M8.24,499.65c0-1.33.34-2.39,1.03-3.17-.68-.68-1.03-1.46-1.03-2.32,0-.77.26-1.46.77-2.07-.25-.3-.45-.61-.59-.94-.12-.36-.18-.73-.18-1.1,0-.86.31-1.61.94-2.23l.09-.07c-.68-.78-1.03-1.84-1.03-3.17h2.21c0,.84.18,1.44.53,1.79s.94.53,1.75.53h4.84c.3,0,.55.11.77.33.21.22.31.48.31.78s-.11.56-.31.77c-.21.22-.47.32-.77.32h-6.17c-.26,0-.49.09-.67.26-.19.17-.28.41-.28.71,0,.12.02.24.07.36.17.37.46.56.88.56h6.17c.28,0,.53.11.75.33s.33.48.33.76-.11.56-.33.77-.47.33-.75.35h-6.17c-.26,0-.49.09-.67.26-.19.17-.28.4-.28.68s.09.52.28.69c.19.17.41.26.67.26h6.17c.3,0,.55.1.77.31.21.21.31.46.31.76s-.11.58-.31.8c-.21.22-.47.33-.77.33h-4.84c-.82,0-1.4.17-1.75.52-.35.35-.53.95-.53,1.8h-2.21ZM20.71,488.62c0-.4.14-.74.42-1.02.28-.28.62-.42,1.02-.42s.73.14,1.02.42.42.62.42,1.02-.14.73-.42,1.02-.62.42-1.02.42-.74-.14-1.02-.42c-.28-.28-.42-.62-.42-1.02ZM20.71,492.12c0-.4.14-.74.42-1.02s.62-.42,1.02-.42.73.14,1.02.42c.28.28.42.62.42,1.02s-.14.73-.42,1.02-.62.42-1.02.42-.74-.14-1.02-.42c-.28-.28-.42-.62-.42-1.02ZM20.71,495.63c0-.4.14-.74.42-1.02.28-.28.62-.42,1.02-.42s.73.14,1.02.42c.28.28.42.62.42,1.02s-.14.74-.42,1.02c-.28.28-.62.42-1.02.42s-.74-.14-1.02-.42c-.28-.28-.42-.62-.42-1.02Z" fill="#fff"/>
    <path d="M10.45,507.19h-2.21v-7.87h2.21v7.87Z" fill="#fff"/>
    <path d="M11.82,519.39c-.17.06-.33.14-.49.23-.59.36-.88.96-.88,1.8h-2.21c0-1.13.32-2.05.95-2.77-.38-.24-.75-.53-1.1-.86-.23-.23-.44-.47-.63-.72-.2-.29-.37-.59-.5-.9l-.04-.07c-.25-.6-.38-1.24-.38-1.91,0-1.4.5-2.62,1.51-3.64.37-.36.76-.65,1.15-.88-.65-.73-.97-1.67-.97-2.81h2.21c0,.84.29,1.44.88,1.8.23.13.47.23.72.31,1.31.06,2.45.58,3.42,1.55s1.53,2.24,1.53,3.67-.51,2.65-1.53,3.67c-1.02,1.01-2.24,1.52-3.65,1.53ZM11.93,517.18c.78-.02,1.45-.31,2-.86.58-.59.86-1.3.86-2.13s-.29-1.54-.87-2.12-1.29-.87-2.12-.87-1.55.29-2.14.87-.89,1.29-.89,2.12.3,1.54.9,2.13c.58.58,1.33.86,2.27.86Z" fill="#fff"/>
    <path d="M10.45,528.97h-2.21v-7.87h2.21v7.87Z" fill="#fff"/>
    <path d="M12.74,533.18c-1.43,0-2.54-.4-3.32-1.2s-1.18-1.91-1.18-3.34h2.21c0,.84.18,1.44.53,1.79s.94.53,1.75.53h11.25c.31,0,.57.11.78.33.21.22.31.48.31.78s-.1.56-.31.77-.47.32-.78.32h-11.25Z" fill="#fff"/>
    <path d="M23.99,535.34c.31,0,.58.11.8.33.22.22.33.47.33.75,0,.31-.11.58-.33.8-.22.22-.49.33-.8.33h-14.65c-.31,0-.57-.11-.78-.33-.21-.22-.32-.49-.32-.79s.1-.56.32-.77c.21-.21.47-.31.78-.31h14.65Z" fill="#fff"/>
    <path d="M9.59,552.12c-.48-.55-.82-1.21-1.01-1.98-.04-.11-.07-.23-.11-.36-.16-.88-.23-1.7-.23-2.48v-1.96c0-.3.11-.56.33-.78.22-.22.48-.33.76-.33.32,0,.59.11.8.33.21.22.31.48.31.78v2.48c0,.67.12,1.37.36,2.09.24.65.68,1.15,1.31,1.51.7.38,1.45.47,2.27.27.82-.2,1.42-.67,1.83-1.39.4-.73.49-1.49.26-2.28-.06-.31-.02-.6.12-.86.14-.26.36-.44.66-.52s.58-.05.84.09c.26.14.45.38.57.7.28,1,.26,1.98-.05,2.95-.11.34-.25.68-.43,1.03-.71,1.26-1.76,2.07-3.15,2.43-.77.19-1.52.23-2.25.11h-.04c-.82-.08-1.4.05-1.75.41-.35.35-.53.95-.53,1.79h-2.21c0-1.43.4-2.54,1.19-3.33l.43-.38-.07-.07c-.07-.07-.14-.15-.22-.23h.02ZM22.31,550.84c-.4,0-.74-.14-1.02-.42-.28-.28-.42-.62-.42-1.03s.14-.74.42-1.02c.28-.28.62-.41,1.02-.41s.73.14,1.02.41c.28.28.42.61.42,1.02s-.14.74-.42,1.03c-.28.28-.62.42-1.02.42Z" fill="#fff"/>
    <path d="M10.45,563.67h-2.21v-7.87h2.21v7.87Z" fill="#fff"/>
    <path d="M10.45,571.07h-2.21v-7.87h2.21v7.87Z" fill="#fff"/>
    <path d="M10.45,578.47h-2.21v-7.87h2.21v7.87Z" fill="#fff"/>
    <path d="M6.42,580.16c0,.4-.14.73-.41,1-.28.27-.61.41-1.02.41s-.74-.13-1.02-.41c-.28-.27-.41-.6-.41-1s.14-.74.41-1.04c.28-.29.61-.44,1.02-.44s.74.15,1.02.44c.28.29.41.64.41,1.04ZM6.42,583.5c0,.4-.14.74-.41,1.02s-.61.41-1.02.41-.74-.14-1.02-.41-.41-.62-.41-1.02.14-.74.41-1.03c.28-.28.61-.42,1.02-.42s.74.14,1.02.42c.28.28.41.62.41,1.03ZM9.52,581.82l-.09-.09c-.79-.79-1.19-1.9-1.19-3.33v-.25h2.21v.25c0,.84.18,1.43.53,1.78.35.35.94.52,1.75.52h4.84c.3,0,.55.11.77.33.21.22.31.49.31.8s-.11.56-.31.77c-.21.21-.47.31-.77.31h-4.84c-.82,0-1.4.18-1.75.53-.35.35-.53.95-.53,1.79v.25h-2.21v-.25c0-1.43.4-2.54,1.19-3.33.02-.04.05-.07.09-.09Z" fill="#fff"/>
    <path d="M10.45,593.03h-2.21v-7.87h2.21v7.87Z" fill="#fff"/>
    <path d="M8.24,608.13c0-1.55.62-2.74,1.85-3.56l-.32-.31c-1.02-1.03-1.53-2.26-1.53-3.69v-7.96h2.21v3.71c.91-.65,1.91-.97,2.99-.97,1.43,0,2.66.51,3.68,1.54s1.54,2.25,1.54,3.68-.51,2.66-1.54,3.69c-1.03,1.03-2.25,1.55-3.68,1.55-.82,0-1.52.17-2.11.52-.59.35-.88.95-.88,1.8h-2.21ZM10.45,600.59c0,.84.29,1.55.88,2.13s1.3.87,2.12.87,1.54-.29,2.12-.87.88-1.29.88-2.13-.29-1.54-.88-2.13-1.3-.89-2.12-.89-1.54.3-2.12.89-.88,1.3-.88,2.13ZM20.75,600.59c0-.43.15-.8.45-1.12.3-.31.67-.47,1.12-.47s.8.16,1.1.47c.3.31.45.68.45,1.12s-.15.8-.45,1.11c-.3.31-.67.46-1.1.46s-.82-.15-1.12-.46c-.3-.31-.45-.68-.45-1.11Z" fill="#fff"/>
    <path d="M10.45,615.68h-2.21v-7.87h2.21v7.87Z" fill="#fff"/>
    <path d="M9.52,618.77l-.09-.09c-.79-.79-1.19-1.9-1.19-3.33h2.21c0,.84.18,1.44.53,1.79s.94.53,1.75.53h4.84c.3,0,.55.11.77.33.21.22.31.48.31.78s-.11.56-.31.77c-.21.22-.47.32-.77.32h-4.84c-.82,0-1.4.17-1.75.52-.35.35-.53.94-.53,1.78h-2.21c0-1.43.4-2.54,1.19-3.33.02-.02.05-.05.09-.09ZM23.75,618.86c0,.4-.14.74-.42,1.02-.28.28-.62.42-1.02.42s-.74-.14-1.02-.42-.42-.62-.42-1.02.14-.74.42-1.02.62-.42,1.02-.42.73.14,1.02.42c.28.28.42.62.42,1.02Z" fill="#fff"/>
    <path d="M10.45,629.73h-2.21v-7.87h2.21v7.87Z" fill="#fff"/>
    <path d="M8.24,629.41h2.21c0,.97.18,1.63.53,1.98.35.35.94.52,1.75.52h4.84c.3,0,.55.11.77.33.21.22.31.49.31.8s-.11.55-.31.76c-.21.21-.47.32-.77.32h-4.84c-1.43,0-2.54-.4-3.32-1.2s-1.18-1.97-1.18-3.52ZM20.84,631.06c0-.4.14-.74.42-1.02.28-.28.62-.41,1.03-.41s.74.14,1.02.41.41.62.41,1.02-.14.74-.41,1.02c-.28.28-.62.41-1.02.41s-.74-.14-1.03-.41c-.28-.28-.42-.62-.42-1.02ZM20.84,634.57c0-.4.14-.74.42-1.02.28-.28.62-.41,1.03-.41s.74.14,1.02.41c.28.28.41.62.41,1.02s-.14.74-.41,1.02c-.28.28-.62.41-1.02.41s-.74-.14-1.03-.41c-.28-.28-.42-.62-.42-1.02Z" fill="#fff"/>
  </g>
  <g>
    <path d="M8.24,212.76c0-.3.11-.56.33-.78.22-.22.48-.33.76-.33.32,0,.59.11.8.33.21.22.31.48.31.78v2.48c0,.67.12,1.37.36,2.09.24.65.68,1.15,1.31,1.51.7.38,1.45.47,2.27.27.82-.2,1.42-.67,1.83-1.4.4-.73.49-1.48.26-2.28-.06-.31-.02-.6.12-.86.14-.26.36-.44.66-.52s.58-.05.84.09c.26.14.45.38.57.7.28,1,.26,1.98-.05,2.95-.11.34-.25.68-.43,1.03-.71,1.26-1.76,2.07-3.16,2.43-1.4.36-2.73.18-4-.53-1.27-.71-2.08-1.77-2.44-3.16-.04-.11-.07-.23-.11-.36-.16-.88-.23-1.7-.23-2.48v-1.96Z" fill="#fff"/>
    <path d="M12.74,223.51h11.25c.31,0,.57.11.78.32s.31.47.31.77-.1.57-.31.79c-.21.22-.47.33-.78.33h-11.25c-.82,0-1.4.17-1.75.52-.35.35-.53.95-.53,1.8h-2.21c0-1.43.39-2.54,1.18-3.34s1.89-1.2,3.32-1.2Z" fill="#fff"/>
    <path d="M8.24,241.53v-13.77h2.21v3.6c.86-.62,1.86-.94,2.99-.94,1.38,0,2.59.5,3.64,1.49s1.58,2.24,1.58,3.74c0,1.42-.51,2.63-1.53,3.64-.19.24-.46.36-.81.36-.31,0-.57-.11-.78-.32s-.31-.48-.31-.82c0-.3.12-.55.36-.76.59-.59.88-1.3.88-2.14s-.31-1.56-.92-2.13c-.61-.57-1.31-.86-2.11-.86-.86,0-1.58.3-2.14.89-.56.59-.85,1.29-.85,2.08v5.92h-2.21Z" fill="#fff"/>
    <path d="M6.44,243.1c0,.4-.14.74-.41,1.02-.28.28-.62.41-1.02.41s-.74-.14-1.02-.41c-.28-.28-.41-.62-.41-1.02s.14-.74.41-1.02c.28-.28.62-.41,1.02-.41s.74.14,1.02.41.41.62.41,1.02ZM8.24,241.24h2.21c0,.84.18,1.44.53,1.79s.94.53,1.75.53h4.84c.3,0,.55.11.77.33.21.22.31.48.31.78s-.11.56-.31.77c-.21.22-.47.32-.77.32h-4.84c-1.43,0-2.54-.4-3.32-1.2s-1.18-1.91-1.18-3.34Z" fill="#fff"/>
    <path d="M10.47,252.65c.61-.28,1.37-.41,2.27-.41h9.54c.31,0,.57.1.78.31s.31.46.31.77-.1.56-.31.79c-.21.23-.47.34-.78.34h-9.54c-.91,0-1.55.17-1.91.52-.25.25-.38.58-.38.99,0,.48.13.84.38,1.08.36.35,1,.52,1.91.52h11.25c.31,0,.57.11.78.33.21.22.31.49.31.79s-.1.56-.31.77-.47.32-.78.32h-11.25c-1.43,0-2.54-.4-3.32-1.2s-1.18-1.86-1.18-3.2v-2.92c0-.32.04-.66.11-1.01.31-1.4,1.04-2.51,2.18-3.31.26-.18.55-.25.85-.2s.54.21.71.48c.17.27.23.55.18.84-.05.29-.21.53-.48.72-.89.65-1.33,1.54-1.31,2.66Z" fill="#fff"/>
    <path d="M23.99,262.66c.31,0,.58.11.8.33.22.22.33.47.33.75,0,.31-.11.58-.33.8-.22.22-.49.33-.8.33h-14.65c-.31,0-.57-.11-.78-.33-.21-.22-.32-.49-.32-.79s.1-.56.32-.77c.21-.21.47-.31.78-.31h14.65Z" fill="#fff"/>
    <path d="M6.47,279.22c0,.43-.15.8-.46,1.11-.31.31-.68.46-1.11.46s-.8-.15-1.11-.46c-.31-.31-.46-.67-.46-1.11s.15-.8.46-1.11c.31-.31.67-.46,1.11-.46s.8.15,1.11.46.46.67.46,1.11ZM6.47,282.87c0,.43-.15.8-.46,1.11-.31.31-.68.46-1.11.46s-.8-.15-1.11-.46-.46-.68-.46-1.11.15-.81.46-1.12c.31-.32.67-.48,1.11-.48s.8.16,1.11.48c.31.32.46.69.46,1.12ZM8.24,276.68c0-1.5.52-2.74,1.57-3.73,1.04-.98,2.26-1.48,3.64-1.48.32,0,.6.1.82.31.22.21.33.47.33.79s-.11.58-.33.79c-.22.21-.5.32-.82.32-.79,0-1.49.28-2.09.84-.6.56-.9,1.27-.9,2.15v7.06c0,.86.3,1.58.9,2.14.31.29.95.5,1.93.65v-.38c0-.32.11-.6.32-.82s.49-.33.81-.33.58.11.78.33.3.5.3.82v3.46c.01,1.49-.71,2.23-2.18,2.21h-.04c-.97.04-1.61.2-1.93.5-.6.36-.9.96-.9,1.8h-2.21c0-1.43.46-2.56,1.39-3.4.73-.68,1.95-1.06,3.65-1.12v-.77c-1.7-.19-2.86-.65-3.47-1.39-1.04-.98-1.57-2.22-1.57-3.71v-7.06Z" fill="#fff"/>
    <path d="M8.24,293.94h2.21c0,.96.18,1.61.53,1.96.35.35.94.52,1.75.52h4.84c.3,0,.55.11.77.34.21.23.31.49.31.79s-.11.55-.31.76c-.21.21-.47.32-.77.32h-4.84c-1.43,0-2.54-.4-3.32-1.19s-1.18-1.96-1.18-3.51ZM20.84,295.7c0-.4.14-.74.42-1.02.28-.28.62-.41,1.03-.41s.74.14,1.02.41.41.61.41,1.02-.14.74-.41,1.02-.62.41-1.02.41-.74-.14-1.03-.41c-.28-.28-.42-.61-.42-1.02ZM20.84,299.21c0-.4.14-.74.42-1.02.28-.28.62-.41,1.03-.41s.74.14,1.02.41.41.61.41,1.02-.14.74-.41,1.02c-.28.28-.62.41-1.02.41s-.74-.14-1.03-.41c-.28-.28-.42-.62-.42-1.02ZM24.35,297.38c0-.4.14-.73.42-1.02.28-.28.62-.42,1.03-.42s.74.14,1.02.42c.28.28.41.62.41,1.02s-.14.74-.41,1.02c-.28.28-.62.42-1.02.42s-.74-.14-1.03-.42-.42-.62-.42-1.02Z" fill="#fff"/>
    <path d="M9.68,312.64c-.1-.07-.18-.15-.25-.23-.79-.8-1.19-1.87-1.19-3.2v-2.92c0-.32.04-.66.11-1.01.31-1.4,1.04-2.51,2.18-3.31.26-.18.55-.25.85-.2s.54.21.71.48c.17.27.23.55.18.84-.05.29-.21.53-.48.72-.89.65-1.33,1.54-1.31,2.66.61-.28,1.37-.41,2.27-.41h9.54c.31,0,.57.1.78.31s.31.46.31.77-.1.56-.31.79c-.21.23-.47.34-.78.34h-9.54c-.91,0-1.55.17-1.91.52-.25.25-.38.58-.38.99,0,.48.13.84.38,1.08.36.35,1,.52,1.91.52h11.25c.31,0,.57.11.78.33.21.22.31.49.31.79s-.1.56-.31.77-.47.32-.78.32h-10.55c-.82,0-1.52.17-2.11.52-.59.35-.88.95-.88,1.8h-2.21c0-1.38.48-2.47,1.44-3.28Z" fill="#fff"/>
    <path d="M9.52,319.14l-.09-.09c-.79-.79-1.19-1.9-1.19-3.33h2.21c0,.84.18,1.44.53,1.79s.94.53,1.75.53h4.84c.3,0,.55.11.77.33.21.22.31.48.31.78s-.11.56-.31.77c-.21.22-.47.32-.77.32h-4.84c-.82,0-1.4.17-1.75.52-.35.35-.53.94-.53,1.78h-2.21c0-1.43.4-2.54,1.19-3.33.02-.02.05-.05.09-.09ZM20.84,317.39c0-.4.14-.74.42-1.02.28-.28.62-.41,1.03-.41s.74.14,1.02.41c.28.28.41.62.41,1.02s-.14.74-.41,1.02c-.28.28-.62.41-1.02.41s-.74-.14-1.03-.41c-.28-.28-.42-.62-.42-1.02ZM20.84,320.9c0-.4.14-.74.42-1.02.28-.28.62-.41,1.03-.41s.74.14,1.02.41.41.61.41,1.02-.14.74-.41,1.02-.62.41-1.02.41-.74-.14-1.03-.41c-.28-.28-.42-.61-.42-1.02ZM24.35,319.07c0-.4.14-.74.42-1.02.28-.28.62-.42,1.03-.42s.74.14,1.02.42c.28.28.41.62.41,1.02s-.14.74-.41,1.02c-.28.28-.62.42-1.02.42s-.74-.14-1.03-.42-.42-.62-.42-1.02Z" fill="#fff"/>
    <path d="M12.74,326.92c-1.43,0-2.54-.4-3.32-1.2s-1.18-1.91-1.18-3.34h2.21c0,.84.18,1.44.53,1.79s.94.53,1.75.53h11.25c.31,0,.57.11.78.33.21.22.31.48.31.78s-.1.56-.31.77-.47.32-.78.32h-11.25Z" fill="#fff"/>
    <path d="M23.99,329.08c.31,0,.58.11.8.33.22.22.33.47.33.75,0,.31-.11.58-.33.8-.22.22-.49.33-.8.33h-14.65c-.31,0-.57-.11-.78-.33-.21-.22-.32-.49-.32-.79s.1-.56.32-.77c.21-.21.47-.31.78-.31h14.65Z" fill="#fff"/>
    <path d="M7.25,343.86c-1.43,0-2.54-.4-3.32-1.2-.79-.8-1.18-1.9-1.18-3.3v-.7c0-.3.11-.56.33-.78s.47-.33.75-.33c.34,0,.61.11.82.33.21.22.31.48.31.78v.7c0,.83.17,1.42.52,1.76.35.35.94.52,1.76.52h10.33c.3,0,.55.11.77.33.21.22.31.49.31.79s-.11.56-.31.77c-.21.21-.47.32-.77.32H7.25Z" fill="#fff"/>
    <path d="M10.45,356.44v1.58h-2.21v-1.58h-.31c-1.38,0-2.59-.5-3.64-1.49-1.04-1-1.57-2.18-1.57-3.55,0-.65.04-1.15.11-1.49.31-1.4,1.04-2.51,2.18-3.31.26-.18.55-.25.85-.2s.54.21.71.48c.17.27.22.55.14.84-.08.29-.25.53-.51.72-.65.44-1.04,1.1-1.19,1.96-.02.19-.04.5-.05.92-.01.8.28,1.49.87,2.06.59.57,1.29.85,2.1.85h1.3c-.66-.91-.99-1.91-.99-3.01,0-1.43.52-2.65,1.55-3.67,1.03-1.02,2.26-1.53,3.69-1.53s2.65.51,3.68,1.53c1.03,1.02,1.54,2.24,1.54,3.67s-.51,2.66-1.54,3.68c-1.03,1.03-2.25,1.54-3.68,1.54h-3.02ZM11.35,353.35c.6.58,1.31.87,2.14.87s1.54-.29,2.12-.87.88-1.29.88-2.12-.29-1.54-.88-2.12-1.3-.87-2.12-.87-1.54.29-2.14.87c-.6.58-.9,1.29-.9,2.12s.3,1.54.9,2.12Z" fill="#fff"/>
    <path d="M8.24,378.36c0-1.43.51-2.54,1.53-3.33l.31-.23-.31-.29c-1.02-1.02-1.53-2.24-1.53-3.65v-13.07h2.21v3.22h7.78c.31,0,.58.11.8.33.22.22.33.47.33.75,0,.32-.11.59-.33.81-.22.22-.49.32-.8.32h-.5c.62.86.94,1.85.94,2.97v4.66c0,1.42-.51,2.63-1.54,3.65-1.03,1.02-2.25,1.53-3.68,1.53-.82,0-1.52.18-2.11.53-.59.35-.88.95-.88,1.79h-2.21ZM10.45,370.86c0,.82.29,1.52.88,2.1s1.3.87,2.12.87,1.54-.29,2.12-.87.88-1.28.88-2.1v-4.66c0-.82-.29-1.52-.88-2.1s-1.3-.87-2.14-.87h-2.99v7.63Z" fill="#fff"/>
    <path d="M9.52,381.6l-.09-.09c-.79-.79-1.19-1.9-1.19-3.33h2.21c0,.84.18,1.44.53,1.79s.94.53,1.75.53h4.84c.3,0,.55.11.77.33.21.22.31.48.31.78s-.11.56-.31.77c-.21.22-.47.32-.77.32h-4.84c-.82,0-1.4.17-1.75.52-.35.35-.53.94-.53,1.78h-2.21c0-1.43.4-2.54,1.19-3.33.02-.02.05-.05.09-.09ZM20.84,379.76c0-.4.14-.74.42-1.02.28-.28.62-.41,1.03-.41s.74.14,1.02.41c.28.28.41.62.41,1.02s-.14.74-.41,1.02c-.28.28-.62.41-1.02.41s-.74-.14-1.03-.41c-.28-.28-.42-.62-.42-1.02ZM20.84,383.27c0-.4.14-.74.42-1.02.28-.28.62-.41,1.03-.41s.74.14,1.02.41c.28.28.41.62.41,1.02s-.14.74-.41,1.02c-.28.28-.62.41-1.02.41s-.74-.14-1.03-.41c-.28-.28-.42-.62-.42-1.02Z" fill="#fff"/>
    <path d="M12.74,389.38c-1.43,0-2.54-.4-3.32-1.2s-1.18-1.91-1.18-3.34h2.21c0,.84.18,1.44.53,1.79s.94.53,1.75.53h11.25c.31,0,.57.11.78.33.21.22.31.48.31.78s-.1.56-.31.77-.47.32-.78.32h-11.25Z" fill="#fff"/>
    <path d="M23.99,391.54c.31,0,.58.11.8.33.22.22.33.47.33.75,0,.31-.11.58-.33.8-.22.22-.49.33-.8.33h-14.65c-.31,0-.57-.11-.78-.33-.21-.22-.32-.49-.32-.79s.1-.56.32-.77c.21-.21.47-.31.78-.31h14.65Z" fill="#fff"/>
  </g>
  <g>
    <path d="M6.47,18.31c0,.43-.15.8-.46,1.11-.31.31-.68.46-1.11.46s-.8-.15-1.11-.46c-.31-.31-.46-.67-.46-1.11s.15-.8.46-1.11c.31-.31.67-.46,1.11-.46s.8.15,1.11.46.46.67.46,1.11ZM6.47,21.96c0,.43-.15.8-.46,1.11-.31.31-.68.46-1.11.46s-.8-.15-1.11-.46-.46-.68-.46-1.11.15-.81.46-1.12c.31-.32.67-.48,1.11-.48s.8.16,1.11.48c.31.32.46.69.46,1.12ZM8.24,15.77c0-1.5.52-2.74,1.57-3.73,1.04-.98,2.26-1.48,3.64-1.48.32,0,.6.1.82.31.22.21.33.47.33.79s-.11.58-.33.79c-.22.21-.5.32-.82.32-.79,0-1.49.28-2.09.84-.6.56-.9,1.27-.9,2.15v7.06c0,.86.3,1.58.9,2.14.31.29.95.5,1.93.65v-.38c0-.32.11-.6.32-.82s.49-.33.81-.33.58.11.78.33.3.5.3.82v3.46c.01,1.49-.71,2.23-2.18,2.21h-.04c-.97.04-1.61.2-1.93.5-.6.36-.9.96-.9,1.8h-2.21c0-1.43.46-2.56,1.39-3.4.73-.68,1.95-1.06,3.65-1.12v-.77c-1.7-.19-2.86-.65-3.47-1.39-1.04-.98-1.57-2.22-1.57-3.71v-7.06Z" fill="#fff"/>
    <path d="M10.45,40.76h-2.21v-7.87h2.21v7.87Z" fill="#fff"/>
    <path d="M12.74,42.76h11.25c.31,0,.57.11.78.33.21.22.31.48.31.78s-.1.56-.31.77-.47.32-.78.32h-11.25c-.82,0-1.4.17-1.75.52-.35.35-.53.94-.53,1.78h-2.21c0-1.43.4-2.54,1.19-3.33.02-.02.05-.05.09-.09l-.09-.09c-.79-.79-1.19-1.9-1.19-3.33h2.21c0,.84.18,1.44.53,1.79s.94.53,1.75.53Z" fill="#fff"/>
    <path d="M10.45,54.82h-2.21v-7.87h2.21v7.87Z" fill="#fff"/>
    <path d="M8.94,63.51c-.47-.77-.7-1.63-.7-2.59v-6.39l2.21-.04v6.43c0,.72.25,1.37.74,1.96.44.54,1.02.88,1.73,1.03.79.13,1.54-.03,2.24-.49s1.13-1.09,1.28-1.91c.15-.82,0-1.57-.48-2.25-.16-.28-.21-.56-.17-.85s.19-.53.45-.7.53-.23.83-.17c.29.06.55.22.76.47.79,1.19,1.06,2.5.8,3.92-.26,1.43-.99,2.54-2.2,3.32s-2.52,1.04-3.95.77c-1.43-.27-2.54-1-3.33-2.19-.07-.1-.14-.2-.22-.32ZM23.28,62.13c-.28.28-.62.42-1.02.42s-.74-.14-1.02-.42-.42-.62-.42-1.02.14-.74.42-1.02c.28-.28.62-.42,1.02-.42s.73.14,1.02.42c.28.28.42.62.42,1.02s-.14.73-.42,1.02Z" fill="#fff"/>
    <path d="M23.99,68.28c.31,0,.58.11.8.33.22.22.33.47.33.75,0,.31-.11.58-.33.8-.22.22-.49.33-.8.33h-14.65c-.31,0-.57-.11-.78-.33-.21-.22-.32-.49-.32-.79s.1-.56.32-.77c.21-.21.47-.31.78-.31h14.65Z" fill="#fff"/>
    <path d="M9.59,80.25c-.48-.55-.82-1.21-1.01-1.98-.04-.11-.07-.23-.11-.36-.16-.88-.23-1.7-.23-2.48v-1.96c0-.3.11-.56.33-.78.22-.22.48-.33.76-.33.32,0,.59.11.8.33.21.22.31.48.31.78v2.48c0,.67.12,1.37.36,2.09.24.65.68,1.15,1.31,1.51.7.38,1.45.47,2.27.27.82-.2,1.42-.67,1.83-1.39.4-.73.49-1.49.26-2.28-.06-.31-.02-.6.12-.86.14-.26.36-.44.66-.52s.58-.05.84.09c.26.14.45.38.57.7.28,1,.26,1.98-.05,2.95-.11.34-.25.68-.43,1.03-.71,1.26-1.76,2.07-3.15,2.43-.77.19-1.52.23-2.25.11h-.04c-.82-.08-1.4.05-1.75.41-.35.35-.53.95-.53,1.79h-2.21c0-1.43.4-2.54,1.19-3.33l.43-.38-.07-.07c-.07-.07-.14-.15-.22-.23h.02Z" fill="#fff"/>
    <path d="M12.74,88.62c-1.43,0-2.54-.4-3.32-1.2s-1.18-1.91-1.18-3.34h2.21c0,.84.18,1.44.53,1.79s.94.53,1.75.53h11.25c.31,0,.57.11.78.33.21.22.31.48.31.78s-.1.56-.31.77-.47.32-.78.32h-11.25Z" fill="#fff"/>
    <path d="M23.99,90.78c.31,0,.58.11.8.33.22.22.33.47.33.75,0,.31-.11.58-.33.8-.22.22-.49.33-.8.33h-14.65c-.31,0-.57-.11-.78-.33-.21-.22-.32-.49-.32-.79s.1-.56.32-.77c.21-.21.47-.31.78-.31h14.65Z" fill="#fff"/>
    <path d="M11.69,102.87c-.04-.06-.08-.12-.14-.18-.36-.35-.95-.52-1.76-.52H3.88c-.31,0-.57-.11-.78-.33-.21-.22-.32-.49-.32-.79s.11-.56.32-.77.47-.32.78-.32h5.9c1.43,0,2.54.4,3.33,1.21.46.46.77,1.08.95,1.87.04.16.06.29.07.4.47.24.91.57,1.33.99,1.02,1.02,1.53,2.24,1.53,3.67s-.51,2.65-1.54,3.67c-1.03,1.02-2.25,1.53-3.68,1.53-.22,0-.43-.01-.63-.04-.08.06-.17.13-.25.22-.3.29-.45.85-.45,1.69h-2.21c0-1.07.29-1.96.86-2.68-.35-.22-.68-.48-1.01-.79-.23-.23-.44-.47-.63-.72-.2-.29-.37-.59-.5-.9l-.04-.07c-.25-.6-.38-1.24-.38-1.91,0-1.4.5-2.62,1.51-3.64.78-.74,1.6-1.22,2.45-1.44.34-.1.73-.14,1.19-.14ZM11.93,110.98c.78-.02,1.45-.31,2-.86.58-.59.86-1.3.86-2.13s-.29-1.54-.87-2.12-1.29-.87-2.12-.87-1.55.29-2.14.87-.89,1.29-.89,2.12.3,1.54.9,2.13c.58.58,1.33.86,2.27.86Z" fill="#fff"/>
    <path d="M10.45,122.71h-2.21v-7.87h2.21v7.87Z" fill="#fff"/>
    <path d="M6.42,124.4c0,.4-.14.73-.41,1-.28.27-.61.41-1.02.41s-.74-.13-1.02-.41c-.28-.27-.41-.6-.41-1s.14-.74.41-1.04c.28-.29.61-.44,1.02-.44s.74.15,1.02.44c.28.29.41.64.41,1.04ZM6.42,127.74c0,.4-.14.74-.41,1.02s-.61.41-1.02.41-.74-.14-1.02-.41-.41-.62-.41-1.02.14-.74.41-1.03c.28-.28.61-.42,1.02-.42s.74.14,1.02.42c.28.28.41.62.41,1.03ZM9.52,126.06l-.09-.09c-.79-.79-1.19-1.9-1.19-3.33v-.25h2.21v.25c0,.84.18,1.43.53,1.78.35.35.94.52,1.75.52h4.84c.3,0,.55.11.77.33.21.22.31.49.31.8s-.11.56-.31.77c-.21.21-.47.31-.77.31h-4.84c-.82,0-1.4.18-1.75.53-.35.35-.53.95-.53,1.79v.25h-2.21v-.25c0-1.43.4-2.54,1.19-3.33.02-.04.05-.07.09-.09Z" fill="#fff"/>
    <path d="M11.82,142.08c-.17.06-.33.14-.49.23-.59.36-.88.96-.88,1.8h-2.21c0-1.13.32-2.05.95-2.77-.38-.24-.75-.53-1.1-.86-.23-.23-.44-.47-.63-.72-.2-.29-.37-.59-.5-.9l-.04-.07c-.25-.6-.38-1.24-.38-1.91,0-1.4.5-2.62,1.51-3.64.37-.36.76-.65,1.15-.88-.65-.73-.97-1.67-.97-2.81h2.21c0,.84.29,1.44.88,1.8.23.13.47.23.72.31,1.31.06,2.45.58,3.42,1.55s1.53,2.24,1.53,3.67-.51,2.65-1.53,3.67c-1.02,1.01-2.24,1.52-3.65,1.53ZM11.93,139.87c.78-.02,1.45-.31,2-.86.58-.59.86-1.3.86-2.13s-.29-1.54-.87-2.12-1.29-.87-2.12-.87-1.55.29-2.14.87-.89,1.29-.89,2.12.3,1.54.9,2.13c.58.58,1.33.86,2.27.86Z" fill="#fff"/>
    <path d="M8.24,164.51c0-1.43.51-2.54,1.53-3.33l.31-.23-.31-.29c-1.02-1.02-1.53-2.24-1.53-3.65v-13.07h2.21v3.22h7.78c.31,0,.58.11.8.33.22.22.33.47.33.75,0,.32-.11.59-.33.81-.22.22-.49.32-.8.32h-.5c.62.86.94,1.85.94,2.97v4.66c0,1.42-.51,2.63-1.54,3.65-1.03,1.02-2.25,1.53-3.68,1.53-.82,0-1.52.18-2.11.53-.59.35-.88.95-.88,1.79h-2.21ZM10.45,157c0,.82.29,1.52.88,2.1s1.3.87,2.12.87,1.54-.29,2.12-.87.88-1.28.88-2.1v-4.66c0-.82-.29-1.52-.88-2.1s-1.3-.87-2.14-.87h-2.99v7.63Z" fill="#fff"/>
    <path d="M9.52,167.75l-.09-.09c-.79-.79-1.19-1.9-1.19-3.33h2.21c0,.84.18,1.44.53,1.79s.94.53,1.75.53h4.84c.3,0,.55.11.77.33.21.22.31.48.31.78s-.11.56-.31.77c-.21.22-.47.32-.77.32h-4.84c-.82,0-1.4.17-1.75.52-.35.35-.53.94-.53,1.78h-2.21c0-1.43.4-2.54,1.19-3.33.02-.02.05-.05.09-.09ZM20.84,165.9c0-.4.14-.74.42-1.02.28-.28.62-.41,1.03-.41s.74.14,1.02.41c.28.28.41.62.41,1.02s-.14.74-.41,1.02c-.28.28-.62.41-1.02.41s-.74-.14-1.03-.41c-.28-.28-.42-.62-.42-1.02ZM20.84,169.41c0-.4.14-.74.42-1.02.28-.28.62-.41,1.03-.41s.74.14,1.02.41c.28.28.41.62.41,1.02s-.14.74-.41,1.02c-.28.28-.62.41-1.02.41s-.74-.14-1.03-.41c-.28-.28-.42-.62-.42-1.02Z" fill="#fff"/>
    <path d="M12.74,175.52c-1.43,0-2.54-.4-3.32-1.2s-1.18-1.91-1.18-3.34h2.21c0,.84.18,1.44.53,1.79s.94.53,1.75.53h11.25c.31,0,.57.11.78.33.21.22.31.48.31.78s-.1.56-.31.77-.47.32-.78.32h-11.25Z" fill="#fff"/>
    <path d="M23.99,177.68c.31,0,.58.11.8.33.22.22.33.47.33.75,0,.31-.11.58-.33.8-.22.22-.49.33-.8.33h-14.65c-.31,0-.57-.11-.78-.33-.21-.22-.32-.49-.32-.79s.1-.56.32-.77c.21-.21.47-.31.78-.31h14.65Z" fill="#fff"/>
  </g>
  <line x1="16.62" y1="191.07" x2="16.62" y2="206.61" fill="none" stroke="#fff" stroke-miterlimit="10" stroke-width="2"/>
  <line x1="16.62" y1="405.73" x2="16.62" y2="421.27" fill="none" stroke="#fff" stroke-miterlimit="10" stroke-width="2"/>
  <line x1="16.62" y1="644.98" x2="16.62" y2="660.52" fill="none" stroke="#fff" stroke-miterlimit="10" stroke-width="2"/>
</svg>