<?xml version="1.0" encoding="UTF-8"?>
<svg id="Layer_1" data-name="Layer 1" xmlns="http://www.w3.org/2000/svg" viewBox="0 0 30.63 864">
  <path d="M12.47,443.26c.23.22.34.48.34.79s-.11.58-.34.79c-.2.23-.46.34-.77.34-1.48,0-2.74-.52-3.78-1.57-1.03-1.04-1.55-2.3-1.55-3.76s.52-2.73,1.55-3.76,2.3-1.57,3.78-1.57c1.85,0,3.2.49,4.05,1.48.5.59.98,1.69,1.42,3.31.31,1.14.65,1.94,1.01,2.39.6.79,1.52,1.27,2.75,1.42v-7.78c0-.31.11-.58.32-.79.23-.23.49-.34.79-.34s.58.11.79.34c.23.22.34.48.34.79v8.96c0,.3-.11.56-.34.79-.22.22-.48.32-.79.32-2.44,0-4.2-.58-5.29-1.75-.66-.71-1.24-1.97-1.73-3.78-.3-1.06-.61-1.78-.92-2.18-.52-.64-1.32-.95-2.41-.95-.85,0-1.58.29-2.18.88-.61.61-.92,1.34-.92,2.2s.31,1.58.92,2.18c.6.6,1.33.9,2.18.9.31,0,.57.11.77.32Z" fill="#fff"/>
  <path d="M8.94,421.1c1.62-1.28,3.56-1.93,5.83-1.93s4.2.64,5.83,1.93c1.72,1.34,2.57,2.99,2.57,4.93s-.86,3.59-2.57,4.95c-1.63,1.28-3.58,1.93-5.83,1.93s-4.21-.64-5.83-1.93c-1.72-1.36-2.57-3.01-2.57-4.95s.86-3.59,2.57-4.93ZM8.6,426.03c0,1.24.57,2.3,1.71,3.19,1.21.97,2.7,1.46,4.46,1.46s3.24-.49,4.46-1.46c1.13-.89,1.69-1.95,1.69-3.19s-.56-2.29-1.69-3.19c-1.22-.96-2.71-1.44-4.46-1.44s-3.25.48-4.46,1.44c-1.14.9-1.71,1.96-1.71,3.19Z" fill="#fff"/>
  <path d="M12.47,415.67c.23.22.34.48.34.79s-.11.58-.34.79c-.2.23-.46.34-.77.34-1.48,0-2.74-.52-3.78-1.57-1.03-1.04-1.55-2.3-1.55-3.76s.52-2.73,1.55-3.76,2.3-1.57,3.78-1.57c1.85,0,3.2.49,4.05,1.48.5.59.98,1.69,1.42,3.31.31,1.14.65,1.94,1.01,2.39.6.79,1.52,1.27,2.75,1.42v-7.78c0-.31.11-.58.32-.79.23-.23.49-.34.79-.34s.58.11.79.34c.23.22.34.48.34.79v8.96c0,.3-.11.56-.34.79-.22.22-.48.32-.79.32-2.44,0-4.2-.58-5.29-1.75-.66-.71-1.24-1.97-1.73-3.78-.3-1.06-.61-1.78-.92-2.18-.52-.64-1.32-.95-2.41-.95-.85,0-1.58.29-2.18.88-.61.61-.92,1.34-.92,2.2s.31,1.58.92,2.18c.6.6,1.33.9,2.18.9.31,0,.57.11.77.32Z" fill="#fff"/>
  <path d="M12.47,402.69c.23.22.34.48.34.79s-.11.58-.34.79c-.2.23-.46.34-.77.34-1.48,0-2.74-.52-3.78-1.57-1.03-1.04-1.55-2.3-1.55-3.76s.52-2.73,1.55-3.76,2.3-1.57,3.78-1.57c1.85,0,3.2.49,4.05,1.48.5.59.98,1.69,1.42,3.31.31,1.14.65,1.94,1.01,2.39.6.79,1.52,1.27,2.75,1.42v-7.78c0-.31.11-.58.32-.79.23-.23.49-.34.79-.34s.58.11.79.34c.23.22.34.48.34.79v8.96c0,.3-.11.56-.34.79-.22.22-.48.32-.79.32-2.44,0-4.2-.58-5.29-1.75-.66-.71-1.24-1.97-1.73-3.78-.3-1.06-.61-1.78-.92-2.18-.52-.64-1.32-.95-2.41-.95-.85,0-1.58.29-2.18.88-.61.61-.92,1.34-.92,2.2s.31,1.58.92,2.18c.6.6,1.33.9,2.18.9.31,0,.57.11.77.32Z" fill="#fff"/>
  <path d="M9.1,380.93c.4,0,.74.14,1.02.42.28.28.42.62.42,1.03s-.14.74-.42,1.02c-.28.28-.62.41-1.02.41s-.73-.14-1.02-.41c-.28-.28-.42-.61-.42-1.02s.14-.74.42-1.03c.28-.28.62-.42,1.02-.42ZM21.83,379.65c.48.55.82,1.21,1.01,1.98.04.11.07.23.11.36.16.88.23,1.7.23,2.48v1.96c0,.3-.11.56-.33.78-.22.22-.48.33-.76.33-.32,0-.59-.11-.8-.33-.21-.22-.31-.48-.31-.78v-2.48c0-.67-.12-1.37-.36-2.09-.24-.65-.68-1.15-1.31-1.51-.7-.38-1.45-.47-2.27-.27-.82.2-1.42.67-1.83,1.39-.4.73-.49,1.49-.26,2.28.06.31.02.6-.12.86-.14.26-.36.44-.66.52s-.58.05-.84-.09c-.26-.14-.45-.38-.57-.7-.28-1-.26-1.98.05-2.95.11-.34.25-.68.43-1.03.71-1.26,1.76-2.07,3.15-2.43.77-.19,1.52-.23,2.25-.11h.04c.82.08,1.4-.05,1.75-.41.35-.35.53-.95.53-1.79h2.21c0,1.43-.4,2.54-1.19,3.33l-.43.38.07.07c.07.07.14.15.22.23h-.02Z" fill="#fff"/>
  <path d="M20.97,368.09h2.21v7.87h-2.21v-7.87Z" fill="#fff"/>
  <path d="M20.97,360.69h2.21v7.87h-2.21v-7.87Z" fill="#fff"/>
  <path d="M20.97,353.3h2.21v7.87h-2.21v-7.87Z" fill="#fff"/>
  <path d="M7.66,350.11c0-.4.14-.74.42-1.02.28-.28.62-.42,1.02-.42s.74.14,1.02.42.42.62.42,1.02-.14.74-.42,1.02-.62.42-1.02.42-.73-.14-1.02-.42c-.28-.28-.42-.62-.42-1.02ZM21.9,350.2l.09.09c.79.79,1.19,1.9,1.19,3.33h-2.21c0-.84-.18-1.44-.53-1.79s-.94-.53-1.75-.53h-4.84c-.3,0-.55-.11-.77-.33-.21-.22-.31-.48-.31-.78s.11-.56.31-.77c.21-.22.47-.32.77-.32h4.84c.82,0,1.4-.17,1.75-.52.35-.35.53-.94.53-1.78h2.21c0,1.43-.4,2.54-1.19,3.33-.02.02-.05.05-.09.09Z" fill="#fff"/>
  <path d="M19.36,344.85c-1.31-.06-2.45-.58-3.42-1.55s-1.53-2.24-1.53-3.67.51-2.65,1.54-3.67c1.03-1.02,2.25-1.53,3.68-1.53s2.59.53,3.69,1.6c.23.23.44.47.63.72.2.29.37.59.5.9l.04.07c.25.6.38,1.24.38,1.91,0,1.4-.5,2.62-1.51,3.64-.37.36-.76.65-1.15.88.65.73.97,1.67.97,2.81h-2.21c0-.84-.29-1.44-.88-1.8-.23-.13-.47-.23-.72-.31ZM19.49,336.75c-.78.02-1.45.31-2,.86-.58.59-.86,1.3-.86,2.13s.29,1.54.87,2.12,1.29.87,2.12.87,1.55-.29,2.14-.87.89-1.29.89-2.12-.3-1.54-.9-2.13c-.58-.58-1.33-.86-2.27-.86Z" fill="#fff"/>
</svg>