<?xml version="1.0" encoding="UTF-8"?>
<svg id="Layer_1" data-name="Layer 1" xmlns="http://www.w3.org/2000/svg" viewBox="0 0 418.58 94.81">
  <path d="M103.86,38.98c.48,0,.9-.17,1.24-.52s.52-.76.52-1.24-.17-.9-.52-1.24-.76-.52-1.24-.52-.9.17-1.24.52-.52.76-.52,1.24.17.9.52,1.24.76.52,1.24.52Z" fill="#fff"/>
  <path d="M104.85,41.65c-1.75-.32-3.34.01-4.8.98-.31.26-.5.58-.57.93-.07.36,0,.7.21,1.01.21.32.5.5.86.55.36.05.71-.02,1.04-.21.84-.57,1.75-.77,2.75-.58,1,.18,1.77.7,2.33,1.56s.76,1.77.59,2.74c-.18.87-.59,1.57-1.25,2.11-.72.6-1.52.9-2.4.9h-43.8c-1.03,0-1.76-.21-2.2-.64-.43-.43-.64-1.13-.64-2.11v-5.96c0-.37-.13-.68-.38-.93-.26-.26-.57-.39-.95-.39s-.7.13-.97.39c-.27.26-.41.57-.41.93v12.65c0,1.01-.21,1.73-.64,2.16-.43.43-1.14.64-2.16.64h-.86c-.37,0-.69.13-.96.38-.27.26-.41.59-.41,1,0,.34.14.64.41.91s.59.41.96.41h.86c1.72,0,3.06-.48,4.04-1.44.98-.96,1.46-2.31,1.46-4.06v-1.8c.69.33,1.51.51,2.44.55v.02h44.2c1.17,0,2.23-.29,3.17-.86.15-.09.28-.18.4-.26,1.45-.97,2.34-2.32,2.67-4.07.33-1.75.01-3.35-.95-4.83-.96-1.47-2.31-2.37-4.06-2.68Z" fill="#fff"/>
  <path d="M126.69,39.07c.53,0,.98-.18,1.35-.55s.56-.82.56-1.36-.19-.98-.56-1.34-.83-.55-1.35-.55-.98.18-1.36.55c-.38.37-.57.81-.57,1.34s.19,1,.57,1.36c.38.37.84.55,1.36.55Z" fill="#fff"/>
  <path d="M126.67,41.62c-1.75,0-3.25.63-4.5,1.88-1.25,1.25-1.88,2.75-1.88,4.5,0,1.32.4,2.54,1.19,3.65h-4.2c-1.04,0-1.77-.22-2.2-.65-.42-.43-.64-1.15-.64-2.14v-13.75c0-.38-.14-.7-.41-.96s-.59-.38-.97-.38-.69.13-.95.38-.38.58-.38.96v13.75c0,1.75.49,3.1,1.46,4.06.91.9,2.17,1.36,3.75,1.42v.02h9.72c1.75,0,3.25-.62,4.51-1.87,1.26-1.25,1.89-2.74,1.89-4.49s-.63-3.24-1.89-4.5c-1.26-1.25-2.76-1.88-4.51-1.88ZM129.3,50.57c-.71.72-1.58,1.08-2.61,1.08s-1.88-.36-2.61-1.08c-.73-.72-1.09-1.58-1.09-2.6s.36-1.88,1.09-2.6,1.59-1.08,2.61-1.08,1.9.36,2.61,1.08,1.07,1.58,1.07,2.6-.36,1.88-1.07,2.6Z" fill="#fff"/>
  <path d="M154.19,56.51c-.53,0-.99.19-1.38.56s-.58.83-.58,1.35.19.98.58,1.35.85.56,1.38.56.98-.19,1.35-.56.56-.83.56-1.35-.19-.98-.56-1.35-.83-.56-1.35-.56Z" fill="#fff"/>
  <path d="M149.73,56.51c-.53,0-.98.19-1.35.56s-.56.83-.56,1.35.19.98.56,1.35.83.56,1.35.56.98-.19,1.35-.56.56-.83.56-1.35-.19-.98-.56-1.35-.83-.56-1.35-.56Z" fill="#fff"/>
  <path d="M220.13,38.98c.48,0,.9-.17,1.24-.52s.52-.76.52-1.24-.17-.9-.52-1.24-.76-.52-1.24-.52-.9.17-1.24.52-.52.76-.52,1.24.17.9.52,1.24.76.52,1.24.52Z" fill="#fff"/>
  <path d="M221.12,41.65c-1.75-.32-3.34.01-4.8.98-.31.26-.5.58-.57.93-.07.36,0,.7.21,1.01.21.32.5.5.86.55.36.05.71-.02,1.04-.21.84-.57,1.75-.77,2.75-.58,1,.18,1.77.7,2.33,1.56s.76,1.77.59,2.74c-.18.87-.59,1.57-1.25,2.11-.72.6-1.52.9-2.4.9h-7.63c-1.03,0-1.75-.22-2.18-.65-.43-.43-.64-1.15-.64-2.14v-13.75c0-.38-.13-.7-.4-.96s-.58-.38-.95-.38-.69.13-.96.38-.41.58-.41.96v13.75c0,1-.22,1.71-.65,2.14-.43.43-1.16.65-2.19.65h-35.95c-1.03,0-1.76-.37-2.2-1.1-.37-.38-.57-1.17-.62-2.35v-.04c.01-1.79-.89-2.68-2.71-2.66h-4.22c-.4,0-.73.12-1,.36s-.41.56-.41.96.14.73.41.99c.27.26.6.4,1,.4h.46c-.18,1.19-.44,1.97-.79,2.35-.69.73-1.56,1.1-2.62,1.1h-8.62c-1.07,0-1.95-.37-2.63-1.1s-1.02-1.58-1.02-2.55c0-.4-.13-.73-.39-1-.26-.27-.58-.41-.97-.41s-.71.14-.97.41c-.26.27-.38.61-.38,1,0,1.69.6,3.17,1.8,4.44,1.2,1.28,2.72,1.91,4.55,1.91h8.62c1.82,0,3.33-.64,4.53-1.91.89-.75,1.46-2.16,1.69-4.25h.95c.07,2.08.53,3.57,1.36,4.47.94,1.04,2.21,1.58,3.76,1.66v.03h36.74v-.03c1.55-.07,2.78-.53,3.67-1.42l.11-.11.11.11c.93.93,2.24,1.41,3.89,1.44h0s7.81.01,7.81.01c1.17,0,2.23-.29,3.17-.86.15-.09.28-.18.4-.26,1.45-.97,2.34-2.32,2.67-4.07.33-1.75.01-3.35-.95-4.83-.96-1.47-2.31-2.37-4.06-2.68Z" fill="#fff"/>
  <path d="M230.2,33.72c-.34,0-.64.14-.91.41s-.41.6-.41.98v17.91c0,.38.13.7.38.96.26.26.57.38.95.38s.7-.13.97-.38.41-.58.41-.96v-17.91c0-.38-.14-.71-.41-.98s-.6-.41-.98-.41Z" fill="#fff"/>
  <path d="M243.89,42.21c-.43-.22-.84-.4-1.25-.53-1.19-.38-2.39-.4-3.61-.07-.4.15-.68.38-.86.69-.18.32-.21.66-.11,1.02.1.37.32.63.64.8s.67.22,1.06.14c.97-.28,1.9-.17,2.78.32.89.49,1.46,1.24,1.71,2.23.25,1,.14,1.92-.33,2.77-.44.78-1.06,1.31-1.85,1.61-.88.29-1.73.44-2.55.44h-3.04c-.37,0-.69.13-.96.38-.27.26-.41.58-.41.98,0,.35.14.66.41.93.27.27.59.41.96.41h2.4c.95,0,1.96-.1,3.04-.29.16-.04.31-.09.44-.13,1.7-.44,2.99-1.43,3.86-2.98.87-1.55,1.09-3.17.65-4.88-.44-1.71-1.43-3-2.97-3.86Z" fill="#fff"/>
  <path d="M312.48,56.58c-.48,0-.91.17-1.26.51-.36.34-.54.75-.54,1.24s.18.91.54,1.24c.36.34.78.51,1.26.51s.89-.17,1.22-.51c.33-.34.5-.75.5-1.24s-.17-.91-.5-1.24c-.33-.34-.74-.51-1.22-.51Z" fill="#fff"/>
  <path d="M316.56,56.58c-.49,0-.91.17-1.25.51-.34.34-.52.75-.52,1.24s.17.91.52,1.24c.34.34.76.51,1.25.51s.91-.17,1.24-.51.51-.75.51-1.24-.17-.91-.51-1.24-.75-.51-1.24-.51Z" fill="#fff"/>
  <path d="M363.29,38.95c.49,0,.91-.17,1.24-.52.34-.34.51-.76.51-1.25s-.17-.91-.51-1.24c-.34-.34-.75-.51-1.24-.51s-.91.17-1.24.51-.51.75-.51,1.24.17.91.51,1.25c.34.34.75.52,1.24.52Z" fill="#fff"/>
  <path d="M365.72,41.62c-.38,0-.71.13-.98.39-.27.26-.41.57-.41.93v5.92c0,1-.21,1.71-.64,2.14-.41.41-1.17.62-2.28.64-.98-.02-1.69-.37-2.11-1.07-.43-.72-.65-1.58-.65-2.57,0-1.75-.62-3.24-1.87-4.5-1.25-1.25-2.74-1.88-4.47-1.88h-5.7c-1.36,0-2.57.38-3.63,1.14v-.62c0-.38-.13-.71-.4-.98-.26-.27-.59-.41-.99-.41-.34,0-.64.14-.91.41-.27.27-.41.6-.41.98v9.5h-3.72c-1.03,0-1.76-.36-2.2-1.08-.12-.19-.21-.39-.29-.59-.01-1.73-.64-3.22-1.87-4.47-1.25-1.25-2.74-1.87-4.49-1.87s-3.24.62-4.49,1.87c-1.19,1.19-1.82,2.58-1.89,4.18-.09.31-.21.6-.37.88-.44.72-1.17,1.08-2.2,1.08h-.09c-1.03,0-1.76-.22-2.19-.65-.43-.43-.65-1.15-.65-2.14v-5.92c0-.37-.13-.68-.38-.93-.26-.26-.57-.39-.93-.39s-.71.13-.98.39c-.27.26-.41.57-.41.93v5.92c0,1-.21,1.71-.64,2.14-.43.43-1.15.65-2.18.65h-36.26c-1.03,0-1.72-.18-2.07-.55-.1-.1-.19-.21-.26-.31.03-.25.04-.51.04-.77,0-1.75-.62-3.25-1.87-4.5-1.25-1.25-2.74-1.88-4.49-1.88s-3.24.62-4.49,1.87c-.51.51-.92,1.06-1.21,1.63-.13.01-.29.04-.48.09-.97.22-1.73.61-2.29,1.17-.98.97-1.47,2.32-1.47,4.07v7.22c0,.38.13.7.38.96.26.26.57.38.95.38s.7-.13.97-.38c.27-.26.41-.58.41-.96v-7.22c0-1,.21-1.72.64-2.16.07-.07.15-.13.22-.18,0,.56.06,1.04.18,1.45.26,1.04.85,2.04,1.76,2.99,1.25,1.23,2.73,1.85,4.44,1.85.82,0,1.6-.15,2.33-.46l.09-.04c.38-.16.75-.37,1.1-.62.31-.24.6-.49.88-.77.38-.4.7-.81.97-1.23.79.63,1.75.96,2.88,1.03v.03h36.74c1.7-.02,3.03-.5,3.98-1.45l.11-.11s.07.08.11.11c.97.97,2.32,1.45,4.07,1.45h.31v-.02c1.29-.04,2.37-.42,3.21-1.17.28.48.64.95,1.08,1.41,1.25,1.23,2.73,1.85,4.44,1.85.82,0,1.6-.15,2.33-.46l.09-.04c.38-.16.75-.37,1.1-.62.31-.24.6-.49.88-.77.41-.42.76-.87,1.06-1.34.83.73,1.89,1.11,3.17,1.15v.02h15.97c1.73,0,3.22-.62,4.47-1.87l.35-.37.29.37c.93,1.19,2.21,1.81,3.85,1.86h0s.06,0,.09,0c.04,0,.09,0,.13,0h0c1.78-.05,3.15-.52,4.08-1.44.97-.96,1.46-2.31,1.46-4.06v-5.92c0-.37-.13-.68-.39-.93-.26-.26-.57-.39-.93-.39ZM267.89,52.62c-.72.73-1.59,1.1-2.61,1.1s-1.88-.36-2.6-1.09c-.71-.73-1.07-1.6-1.07-2.62s.36-1.88,1.07-2.6,1.58-1.07,2.6-1.07,1.89.35,2.61,1.06c.67.67,1.03,1.49,1.06,2.44,0,1.14-.35,2.07-1.06,2.77ZM330.33,52.62c-.72.73-1.59,1.1-2.61,1.1s-1.88-.36-2.6-1.09c-.71-.73-1.07-1.6-1.07-2.62s.36-1.88,1.07-2.6,1.58-1.07,2.6-1.07,1.89.35,2.61,1.06c.67.67,1.03,1.49,1.06,2.44,0,1.14-.35,2.07-1.06,2.77ZM354.89,50.57c-.71.72-1.57,1.08-2.56,1.08h-9.33v-3.65c0-1.03.36-1.9,1.07-2.62.71-.72,1.57-1.08,2.56-1.08h5.7c1,0,1.85.36,2.56,1.08s1.07,1.58,1.07,2.6-.36,1.88-1.07,2.6Z" fill="#fff"/>
  <path d="M368.82,35.94c-.34-.34-.75-.51-1.24-.51s-.91.17-1.24.51-.51.75-.51,1.24.17.91.51,1.25c.34.34.75.52,1.24.52s.91-.17,1.24-.52c.34-.34.51-.76.51-1.25s-.17-.91-.51-1.24Z" fill="#fff"/>
</svg>